<svg width="85" height="85" viewBox="0 0 85 85" fill="none" xmlns="http://www.w3.org/2000/svg">
<path d="M84.4991 42.2459C84.4991 51.7301 81.376 60.4821 76.1097 67.5295C75.6328 68.1664 75.137 68.7915 74.6223 69.398C74.3363 69.7447 74.0427 70.0842 73.7415 70.42C73.4744 70.7174 73.2036 71.0109 72.9289 71.3008C65.2295 79.4312 54.3346 84.4995 42.2535 84.4995C30.1758 84.4995 19.2771 79.4312 11.5777 71.3046L11.5739 71.3008L11.5508 71.2781C10.9712 70.6677 10.4105 70.0426 9.8692 69.398C9.35823 68.7915 8.86623 68.1664 8.38941 67.5295C3.12308 60.4821 0 51.7301 0 42.2459C0 18.9148 18.9149 6.49651e-06 42.2535 6.49651e-06C65.5842 6.49651e-06 84.4991 18.9148 84.4991 42.2459Z" fill="#FFFDCC"/>
<path d="M72.9373 71.2818L72.9255 71.3049L72.9198 71.3106C72.8447 71.3919 72.7692 71.4726 72.6881 71.548C72.5435 71.7044 72.3986 71.8549 72.2423 72.0112C72.1437 72.1099 72.0398 72.2138 71.9354 72.3125C71.7849 72.4687 71.6286 72.6136 71.478 72.7582C71.374 72.8625 71.2697 72.9608 71.1597 73.0593C71.0091 73.2039 70.8524 73.3489 70.6962 73.4938C68.2123 75.7576 65.456 77.7263 62.4854 79.348C61.5299 79.8689 60.5516 80.3555 59.5554 80.8012C55.1199 82.7988 50.2791 84.0499 45.1949 84.397C44.2223 84.4664 43.2436 84.5013 42.2535 84.5013C41.2574 84.5013 40.273 84.4664 39.2943 84.397C34.4768 84.067 29.8849 82.9263 25.6462 81.1138C25.4087 81.0098 25.1716 80.9113 24.9399 80.8012C20.8404 78.9599 17.088 76.4757 13.8048 73.4877C13.6485 73.3489 13.4922 73.2039 13.3356 73.0537C13.2316 72.9608 13.1216 72.8567 13.023 72.7582C12.8667 72.6136 12.7104 72.463 12.5655 72.3125C12.4616 72.2138 12.3573 72.1099 12.253 72.0112C12.108 71.8549 11.9518 71.7044 11.8072 71.548C11.7261 71.467 11.6506 71.3861 11.5755 71.3049H11.5698L11.558 71.2818L15.8142 65.2537C16.8737 63.7539 18.391 62.6594 20.1397 62.1269L20.1799 62.1094C20.9792 61.8662 21.9348 61.5883 22.9942 61.2989C24.8587 60.7719 27.0592 60.1988 29.3754 59.6661C33.7185 58.6756 38.478 57.8419 42.2418 57.8362H42.2592C46.023 57.8419 50.7829 58.6756 55.1199 59.6661C57.4418 60.1988 59.6423 60.7776 61.5067 61.2989C62.5666 61.5943 63.5104 61.8662 64.3153 62.1094L64.3616 62.1269C65.346 62.4281 66.2549 62.903 67.0485 63.5338C67.2218 63.667 67.3899 63.812 67.5522 63.9569C67.9691 64.3445 68.3454 64.7788 68.6811 65.2537L72.9373 71.2818Z" fill="#BE1F72"/>
<path d="M45.1949 84.397C44.2223 84.4664 43.2436 84.5013 42.2535 84.5013C41.2574 84.5013 40.273 84.4664 39.2943 84.397L40.7248 74.8601H43.7299L45.1949 84.397Z" fill="#39173E"/>
<path d="M44.1396 74.6511H40.5381C40.2354 74.6511 39.9779 74.4375 39.9316 74.1477L39.388 70.7686C39.3299 70.4074 39.6179 70.0815 39.9949 70.0815H44.6828C45.0594 70.0815 45.3474 70.4074 45.2893 70.7686L44.7461 74.1477C44.6995 74.4375 44.4423 74.6511 44.1396 74.6511Z" fill="#39173E"/>
<path d="M43.6707 74.2372H40.8374C40.5962 74.2372 40.4005 74.4463 40.4005 74.7038V75.0156C40.4005 75.2732 40.5962 75.4822 40.8374 75.4822H43.6707C43.912 75.4822 44.1081 75.2732 44.1081 75.0156V74.7038C44.1081 74.4463 43.912 74.2372 43.6707 74.2372Z" fill="#39173E"/>
<path d="M52.5077 60.8311V47.0585H31.9913V60.8327L31.9906 60.8576C31.9906 66.5235 36.5836 71.1164 42.2493 71.1164C47.9155 71.1164 52.5085 66.5235 52.5085 60.8576L52.5077 60.8311Z" fill="#F6859D"/>
<path d="M51.0014 47.0586H31.9913V50.792C34.325 54.9829 37.5323 56.8057 41.235 57.4122C42.772 57.6648 44.8774 57.774 46.8526 57.8143C49.1597 57.8609 51.0014 59.7531 51.0014 62.061C51.0014 64.9666 49.7924 67.5905 47.8514 69.4549C50.6543 67.6246 52.5077 64.4557 52.5077 60.8595V57.7782V47.0586H51.0014Z" fill="#F3618E"/>
<path d="M32.3892 39.3595C32.3892 42.7906 29.7749 45.5723 26.5501 45.5723C23.325 45.5723 20.7106 42.7906 20.7106 39.3595C20.7106 35.9284 23.325 33.1468 26.5501 33.1468C29.7749 33.1468 32.3892 35.9284 32.3892 39.3595Z" fill="#F6859D"/>
<path d="M26.5497 43.6658C24.3815 43.6658 22.6172 41.7338 22.6172 39.3595C22.6172 36.9853 24.3815 35.0537 26.5497 35.0537C28.7184 35.0537 30.4823 36.9853 30.4823 39.3595C30.4823 41.7338 28.7184 43.6658 26.5497 43.6658Z" fill="#F3618E"/>
<path d="M63.7884 39.3595C63.7884 42.7906 61.174 45.5723 57.9489 45.5723C54.7242 45.5723 52.1098 42.7906 52.1098 39.3595C52.1098 35.9284 54.7242 33.1468 57.9489 33.1468C61.174 33.1468 63.7884 35.9284 63.7884 39.3595Z" fill="#F6859D"/>
<path d="M57.9489 43.6658C55.7803 43.6658 54.0164 41.7338 54.0164 39.3595C54.0164 36.9853 55.7803 35.0537 57.9489 35.0537C60.1176 35.0537 61.8815 36.9853 61.8815 39.3595C61.8815 41.7338 60.1176 43.6658 57.9489 43.6658Z" fill="#F3618E"/>
<path d="M48.761 14.6056C53.8619 14.6056 57.9975 18.7407 57.9975 23.842V37.3987H57.9743C57.7877 45.0867 55.267 48.3589 51.4725 51.7414C48.8794 54.0562 45.691 55.8296 42.2436 55.8296C38.7773 55.8296 35.5741 54.041 32.9768 51.7069C29.2055 48.3168 26.7 45.0602 26.5129 37.3987C26.5054 37.09 26.5016 36.7736 26.5016 36.4531V23.842C26.5016 18.7407 30.6371 14.6056 35.738 14.6056H48.761Z" fill="#F89DAD"/>
<path d="M48.3248 40.2544C48.3248 40.2544 48.338 40.229 48.3627 40.1819C48.3896 40.1364 48.4188 40.0632 48.4757 39.9813C48.5827 39.8117 48.7451 39.5731 48.992 39.3277C49.2363 39.0811 49.5652 38.8281 49.9643 38.6388C50.3595 38.4412 50.8253 38.3232 51.2961 38.2845C51.4145 38.2811 51.5302 38.2739 51.6512 38.2796C51.76 38.2815 51.8788 38.2913 51.9983 38.3038C52.2308 38.3296 52.4527 38.3839 52.664 38.448C53.0843 38.5827 53.4473 38.7848 53.7223 38.9973C54.0019 39.2055 54.1916 39.4255 54.3194 39.5773C54.3854 39.6524 54.4268 39.7199 54.4579 39.7628C54.4882 39.8064 54.5045 39.8299 54.5045 39.8299C54.5045 39.8299 54.418 39.7571 54.2671 39.63C54.118 39.5029 53.8885 39.3421 53.6021 39.1805C53.3153 39.0193 52.9633 38.8698 52.5722 38.7708C52.3765 38.7215 52.1693 38.6934 51.9611 38.6699C51.8598 38.6616 51.7559 38.654 51.6405 38.6544C51.5377 38.6509 51.4281 38.6608 51.3219 38.6646C51.1087 38.6805 50.8955 38.7078 50.6911 38.7583C50.487 38.8103 50.2856 38.8649 50.1001 38.9449C49.7245 39.0944 49.3983 39.2943 49.135 39.4923C48.8744 39.6918 48.6646 39.8796 48.5353 40.0249C48.4014 40.1709 48.3248 40.2544 48.3248 40.2544Z" fill="#F3618E"/>
<path d="M36.2664 40.2544C36.2664 40.2544 36.1902 40.1709 36.0563 40.0249C35.9265 39.8796 35.7168 39.6918 35.4562 39.4923C35.1933 39.2943 34.8667 39.0944 34.4911 38.9449C34.3056 38.8649 34.1042 38.8103 33.9005 38.7583C33.6957 38.7078 33.4825 38.6805 33.2693 38.6646C33.1634 38.6608 33.0538 38.6509 32.9506 38.6544C32.8353 38.654 32.7314 38.6616 32.6301 38.6699C32.4222 38.6934 32.2147 38.7215 32.0194 38.7708C31.6279 38.8698 31.2759 39.0193 30.9891 39.1805C30.7027 39.3421 30.4736 39.5029 30.3241 39.63C30.1731 39.7571 30.087 39.8299 30.087 39.8299C30.087 39.8299 30.103 39.8064 30.1333 39.7628C30.1644 39.7199 30.2061 39.6524 30.2718 39.5773C30.3996 39.4255 30.5897 39.2055 30.8692 38.9973C31.1442 38.7848 31.5069 38.5827 31.9276 38.448C32.1385 38.3839 32.3608 38.3296 32.5929 38.3038C32.7124 38.2913 32.8312 38.2815 32.94 38.2796C33.0614 38.2739 33.1767 38.2811 33.2955 38.2845C33.7658 38.3232 34.2317 38.4412 34.6269 38.6388C35.026 38.8281 35.3549 39.0811 35.5992 39.3277C35.8465 39.5731 36.0089 39.8117 36.1154 39.9813C36.1727 40.0632 36.2016 40.1364 36.2285 40.1819C36.2535 40.229 36.2664 40.2544 36.2664 40.2544Z" fill="#F3618E"/>
<path d="M24.6584 33.5208C24.6269 32.83 24.7836 32.1905 24.7745 31.5251C24.7627 30.6606 24.3192 29.7673 24.0803 28.9494C23.303 26.291 23.4836 23.3637 24.5817 20.821C24.853 20.1924 25.1784 19.587 25.5616 19.0199C25.9963 18.3762 26.552 17.7518 27.3008 17.545C26.475 16.8603 25.8313 15.9587 25.4527 14.9553C26.0612 15.6119 26.8824 16.0687 27.7613 16.2386C26.7235 15.7231 26.3476 14.4296 26.2857 13.2718C26.1321 10.4014 27.2974 7.48656 29.3876 5.51249C28.9919 6.70095 29.4039 8.10905 30.5294 8.74255C29.5511 7.26958 29.5787 5.19651 30.5965 3.7501C30.4558 3.95039 30.7922 4.77279 30.9083 5.00532C31.1306 5.45028 31.4895 5.86034 31.8343 6.21388C32.533 6.92969 33.3896 7.48846 34.3174 7.85945C35.8188 8.45994 37.4883 8.58095 39.088 8.34576C40.3379 8.16216 41.5514 7.76765 42.8058 7.61857C43.2846 7.56167 43.7674 7.54118 44.2496 7.54384C45.8997 7.55294 47.5684 7.84617 49.047 8.57829C51.1725 9.62981 53.2095 11.8853 52.9117 14.4007C53.0471 13.2582 53.1738 12.0519 52.7133 10.9973C53.4489 11.8808 53.8438 12.9179 53.9276 14.0688C53.9371 14.1955 54.0114 15.725 54.022 15.725C54.1317 15.7246 54.2295 15.7261 54.3392 15.7193C55.1669 15.6654 55.987 15.7823 56.7836 16.0326C57.29 16.1919 57.9243 16.4029 58.3241 16.7674C57.7149 16.7352 57.1053 16.7025 56.4961 16.6703C59.9894 17.8921 60.9028 22.4332 60.2223 25.6431C60.0315 26.5437 59.7094 27.3865 59.6392 28.3148C59.5456 29.5469 59.7257 29.7923 59.7625 31.0244C59.7671 31.167 57.9925 31.7368 57.8818 31.7368V28.0663C57.8818 22.22 53.2046 17.4809 47.4352 17.4809H37.0725C33.8952 17.4809 30.8393 18.9842 28.8701 21.5106C27.5831 23.1623 26.9067 25.1762 26.6878 27.2534C26.5888 28.1911 26.6362 29.136 26.7019 30.0745C26.7315 30.4994 26.7853 30.9254 26.8157 31.3476C26.8434 31.7318 26.6673 32.1658 26.6222 32.5542C26.5414 33.2511 26.5164 33.9506 26.4849 34.6508C26.4598 35.2013 25.9989 35.4232 25.5972 35.7384C25.4626 35.8442 24.735 36.2865 24.7452 36.4823C24.7267 35.485 24.7016 34.5021 24.6584 33.5208Z" fill="#511D5A"/>
<path d="M25.4451 39.3595H26.6275V31.0244H24.7452V38.66C24.7452 39.0462 25.0586 39.3595 25.4451 39.3595Z" fill="#511D5A"/>
<path d="M59.063 39.3595H57.8806V31.0244H59.7629V38.66C59.7629 39.0462 59.4495 39.3595 59.063 39.3595Z" fill="#511D5A"/>
<path d="M51.0757 23.8379C51.0655 23.6656 51.056 23.4904 51.0458 23.3113L32.3149 23.3193C32.3559 24.3488 32.3964 25.3875 32.2239 26.4037C32.0509 27.4196 31.6465 28.4244 30.9117 29.1474C30.6341 29.4202 30.3158 29.6474 30.01 29.8887C27.9074 31.5464 26.7519 33.9385 26.6241 36.6283C26.6491 36.0957 26.0319 35.3511 25.8605 34.8458C25.6048 34.0936 25.4963 33.22 25.3791 32.4351C25.1174 30.6822 25.0377 28.9009 25.1451 27.1313C25.2039 26.1617 25.4508 25.4 25.7581 24.5006C26.0225 23.726 25.9993 22.8641 26.2633 22.0607C26.7485 20.5828 27.6441 19.279 28.795 18.2525C32.2978 15.1294 37.5042 14.5673 41.9671 14.5673C59.3195 14.5673 59.4359 25.8795 59.4359 25.8795C59.2383 27.1908 59.0407 28.5018 58.843 29.8128C58.843 30.3306 58.6416 30.8882 58.5703 31.4022C58.4914 31.9708 58.494 32.511 58.5665 33.08C58.6135 33.4476 58.73 33.8319 58.6446 34.2002C58.6446 34.4862 58.5244 34.7969 58.3776 35.0856C58.2733 35.2915 58.1553 35.4858 58.0578 35.6523C58.1466 35.5006 57.8298 34.7423 57.7794 34.5644C57.6769 34.2051 57.562 33.8489 57.4675 33.4874C57.2058 32.4841 56.8663 31.5304 56.2768 30.6709C55.2416 29.1619 53.3184 28.6251 52.1542 27.2322C51.2711 26.175 51.1497 25.0885 51.0757 23.8379Z" fill="#511D5A"/>
<path d="M44.0861 42.4894L43.4476 43.2747C42.7861 44.0883 41.7129 44.0883 41.0514 43.2747L40.413 42.4894C40.2282 42.2622 40.3591 41.8741 40.6201 41.8741H43.8789C44.1399 41.8741 44.2708 42.2622 44.0861 42.4894Z" fill="#F46D82"/>
<path d="M50.5279 36.6283C50.5279 38.0072 49.7454 39.1251 48.78 39.1251C47.8149 39.1251 47.0323 38.0072 47.0323 36.6283C47.0323 35.2494 47.8149 34.1319 48.78 34.1319C49.7454 34.1319 50.5279 35.2494 50.5279 36.6283Z" fill="#501F5F"/>
<path d="M48.7804 38.3622C48.3149 38.3622 47.7949 37.6206 47.7949 36.6287C47.7949 35.636 48.3149 34.8947 48.7804 34.8947C49.2454 34.8947 49.7651 35.636 49.7651 36.6287C49.7651 37.6206 49.2454 38.3622 48.7804 38.3622Z" fill="#3A1A45"/>
<path d="M33.9779 36.6283C33.9779 38.0072 34.7605 39.1251 35.7259 39.1251C36.6909 39.1251 37.4735 38.0072 37.4735 36.6283C37.4735 35.2494 36.6909 34.1319 35.7259 34.1319C34.7605 34.1319 33.9779 35.2494 33.9779 36.6283Z" fill="#501F5F"/>
<path d="M35.7259 38.3622C35.2604 38.3622 34.7408 37.6206 34.7408 36.6287C34.7408 35.636 35.2604 34.8947 35.7259 34.8947C36.191 34.8947 36.7106 35.636 36.7106 36.6287C36.7106 37.6206 36.191 38.3622 35.7259 38.3622Z" fill="#3A1A45"/>
<path d="M37.076 31.0331C36.0309 30.9091 34.9536 30.9993 33.9563 31.2793C33.4541 31.42 32.967 31.6135 32.4867 31.8161C32.0619 31.9951 31.1553 32.5114 31.1553 33.094C31.1553 33.4009 31.9276 32.868 32.115 32.7894C32.9245 32.4495 33.775 32.1817 34.6516 32.0922C35.5776 31.9974 36.4072 32.162 37.2706 32.4871C37.7663 32.6741 38.2367 33.0049 38.7519 33.1263C39.0417 33.1965 39.4324 33.1263 39.6406 32.8998C39.7814 32.7469 39.781 32.5482 39.762 32.3509C39.7381 32.0994 39.6259 31.8612 39.4775 31.6598C39.4157 31.5756 39.3478 31.4963 39.278 31.4189C39.2723 31.5118 39.2784 31.6051 39.2962 31.6962C39.2788 31.6063 39.1027 31.579 39.0364 31.5505C38.4169 31.2835 37.7535 31.1131 37.076 31.0331Z" fill="#511D5A"/>
<path d="M47.1671 31.0331C48.2121 30.9091 49.2898 30.9993 50.2871 31.2793C50.789 31.42 51.2764 31.6135 51.7563 31.8161C52.1815 31.9951 53.0881 32.5114 53.0881 33.094C53.0881 33.4009 52.3154 32.868 52.1284 32.7894C51.3185 32.4495 50.4681 32.1817 49.5914 32.0922C48.6654 31.9974 47.8362 32.162 46.9728 32.4871C46.4771 32.6741 46.0063 33.0049 45.4915 33.1263C45.2017 33.1965 44.8106 33.1263 44.6028 32.8998C44.462 32.7469 44.462 32.5482 44.481 32.3509C44.5053 32.0994 44.6175 31.8612 44.7659 31.6598C44.8273 31.5756 44.8956 31.4963 44.9654 31.4189C44.9707 31.5118 44.9646 31.6051 44.9472 31.6962C44.9646 31.6063 45.1406 31.579 45.207 31.5505C45.8261 31.2835 46.49 31.1131 47.1671 31.0331Z" fill="#511D5A"/>
<path d="M41.8783 48.5099C38.8463 48.5099 36.7968 47.1189 36.7653 47.0969C36.5927 46.9766 36.5502 46.7391 36.6704 46.5665C36.7899 46.394 37.027 46.3503 37.2007 46.4706C37.3866 46.5992 41.8078 49.5758 47.3112 46.0696C47.488 45.957 47.7235 46.0085 47.8377 46.1865C47.9504 46.3644 47.8984 46.5999 47.7209 46.713C45.5864 48.0729 43.5781 48.5099 41.8783 48.5099Z" fill="#F3618E"/>
<path d="M31.9905 59.0983L42.2493 71.1164C42.2493 71.1164 35.3317 72.251 33.1122 79.697C33.1122 79.697 31.2304 65.7879 26.3676 60.3926L28.1433 55.2818C28.2423 54.9965 28.4566 54.7663 28.7339 54.6464L31.9905 53.2417V59.0983Z" fill="#E22693"/>
<path d="M31.9906 59.0983L29.4904 56.1C29.2726 55.8386 29.3614 55.4415 29.6702 55.2981L31.9906 54.2189V59.0983Z" fill="#A51A66"/>
<path d="M52.5104 59.0983L42.2516 71.1164C42.2516 71.1164 49.1692 72.251 51.3887 79.697C51.3887 79.697 53.5141 63.0555 58.1333 60.3926L56.3576 55.2818C56.2586 54.9965 56.0442 54.7663 55.767 54.6464L52.5104 53.2417V59.0983Z" fill="#E22693"/>
<path d="M52.5104 59.0983L55.0106 56.1C55.2283 55.8386 55.1396 55.4415 54.8308 55.2981L52.5104 54.2189V59.0983Z" fill="#A51A66"/>
</svg>
