<svg width="85" height="85" viewBox="0 0 85 85" fill="none" xmlns="http://www.w3.org/2000/svg">
<path d="M84.5004 42.246C84.5004 51.7303 81.3769 60.4824 76.1106 67.5297C75.6337 68.1667 75.1379 68.7922 74.6232 69.3984C74.3371 69.7454 74.0435 70.0851 73.7423 70.4204C73.4753 70.7181 73.2044 71.0118 72.9302 71.3016C65.2303 79.432 54.3353 84.5 42.254 84.5C30.1766 84.5 19.2775 79.432 11.5779 71.3053L11.5741 71.3016L11.5512 71.2784C10.9715 70.6685 10.411 70.0428 9.86937 69.3984C9.35844 68.7922 8.86651 68.1667 8.38979 67.5297C3.12318 60.4824 0 51.7303 0 42.246C0 18.9151 18.9152 1.29868e-06 42.254 1.29868e-06C65.585 1.29868e-06 84.5004 18.9151 84.5004 42.246Z" fill="#CAFCD2"/>
<path d="M42.5734 54.0389C42.1903 54.0389 41.8072 54.0427 41.424 54.0427V54.0351C41.8072 54.0351 42.1903 54.0389 42.5734 54.0389Z" fill="#661815"/>
<path d="M61.6581 57.1343C60.9222 58.1169 60.2583 58.9817 59.1658 59.6039C59.3782 58.6555 59.4958 57.4378 59.2303 56.4933C58.8661 55.196 57.6447 54.7938 56.4839 54.4524C54.0371 53.7355 51.3552 54.0276 48.8402 54.0276C47.1331 54.0238 45.4299 54.0276 43.7229 54.0352C43.3397 54.0352 42.9566 54.039 42.5735 54.039C42.1903 54.039 41.8072 54.0352 41.4241 54.0352C39.7208 54.0276 38.0176 54.0238 36.3106 54.0276C33.7917 54.0276 31.1098 53.7355 28.6668 54.4524C27.5023 54.7938 26.2846 55.196 25.9205 56.4933C25.655 57.4378 25.7725 58.6555 25.985 59.6039C24.8886 58.9817 24.2286 58.1169 23.4928 57.1343C19.8472 52.275 19.1607 44.8362 19.4983 38.9526C19.669 36.0317 20.2455 33.198 20.7841 30.334C21.3305 27.4244 22.1879 24.5718 23.341 21.8481C24.5776 18.9234 26.2354 16.0518 28.3937 13.6999C30.3966 11.5149 32.832 9.78132 35.7643 8.8709C36.6558 8.59398 37.6231 8.4081 38.5183 8.67743C40.4863 9.26958 41.9005 11.4717 44.2118 10.3211C44.8738 9.99147 45.2683 9.31359 45.917 8.95588C47.1802 8.25978 48.1202 8.8709 49.3864 8.8709C52.3187 9.78132 54.7541 11.5149 56.757 13.6999C58.9154 16.0518 60.5732 18.9234 61.806 21.8481C62.9592 24.5718 63.8203 27.4244 64.3666 30.334C64.9052 33.198 65.4818 36.0317 65.6487 38.9526C65.9901 44.8362 65.3035 52.275 61.6581 57.1343Z" fill="#661815"/>
<path d="M43.7228 54.0351V54.0427C43.3397 54.0427 42.9566 54.0389 42.5734 54.0389C42.9566 54.0389 43.3397 54.0351 43.7228 54.0351Z" fill="#661815"/>
<path d="M70.7072 73.4802V73.4839L70.6958 73.4914C68.9395 75.0924 67.0466 76.5451 65.0399 77.8312C64.2091 78.366 63.3594 78.8705 62.4907 79.3447C61.5348 79.8643 60.5523 80.3538 59.5584 80.7976C54.2742 83.1799 48.4134 84.5 42.2529 84.5C36.358 84.5 30.7475 83.2937 25.6455 81.1125C25.5847 81.0859 25.5278 81.0593 25.4672 81.0328C25.2888 80.9569 25.1181 80.881 24.9437 80.7976C24.4012 80.5549 23.8663 80.3045 23.3429 80.0389C22.0075 79.3675 20.7102 78.6315 19.4584 77.8273C17.4517 76.5376 15.5626 75.0809 13.8062 73.4839L16.2264 68.6701C17.1862 66.7658 18.5404 65.0967 20.202 63.7766C20.513 63.53 20.8354 63.291 21.173 63.071C21.3779 62.9307 21.5902 62.7979 21.8066 62.669C21.909 62.6044 22.0189 62.5399 22.129 62.4793C23.6274 61.5991 25.3078 60.7419 26.757 60.2981L26.8137 60.2791L26.8365 60.2753C27.1096 60.207 27.3828 60.1386 27.6635 60.0705L27.6786 60.0666L27.6976 60.0628C28.0314 59.9794 28.369 59.8998 28.7105 59.8201H28.7142C28.9305 59.767 29.1543 59.7138 29.3743 59.6645C33.7177 58.6745 38.4785 57.8399 42.2415 57.8324H42.2605C46.0235 57.8399 50.7843 58.6745 55.1201 59.6645C55.3477 59.7177 55.5753 59.7707 55.7991 59.8201L55.8598 59.839C56.1557 59.9035 56.4516 59.9794 56.7437 60.0477L56.7627 60.0515C57.0813 60.1311 57.4 60.207 57.711 60.2867L57.7414 60.2942L57.7679 60.3018C59.3232 60.7798 61.1441 61.7357 62.7183 62.6727C62.9118 62.7865 63.1015 62.9078 63.2873 63.0331C65.4192 64.4329 67.1452 66.3865 68.2908 68.6701L70.7072 73.4802Z" fill="#F04825"/>
<path d="M52.8866 59.7609C52.8866 66.3326 48.1061 71.681 42.2317 71.681C36.3572 71.681 31.5764 66.3326 31.5764 59.7609V59.7495C31.5771 59.111 31.9895 58.5622 32.5475 58.426C35.8648 57.6172 39.3881 56.9758 42.2252 56.9723H42.2411C45.0779 56.9758 48.6012 57.6172 51.9158 58.426C52.4735 58.5622 52.8862 59.111 52.8866 59.7495V59.7609Z" fill="#731C18"/>
<path d="M28.7124 59.8213C28.462 59.9047 28.1244 59.9844 27.6995 60.064C28.0333 59.9806 28.371 59.9009 28.7124 59.8213Z" fill="#B0E5F9"/>
<path d="M56.7456 60.0489C56.3814 59.9805 56.0893 59.9122 55.8579 59.8405C56.1576 59.9047 56.4535 59.9805 56.7456 60.0489Z" fill="#B0E5F9"/>
<path d="M50.529 59.361V45.5884H33.9715V59.3629L33.9708 59.388C33.9708 65.0538 37.6777 69.6469 42.2502 69.6469C46.8228 69.6469 50.5294 65.0538 50.5294 59.388L50.529 59.361Z" fill="#F6859D"/>
<path d="M49.3132 47.0595H33.9715V52.1821C33.9715 52.4643 34.4427 53.0147 34.5963 53.2545C34.8004 53.5735 35.0177 53.8845 35.2526 54.1823C35.6482 54.6846 36.0936 55.15 36.5973 55.5452C37.8279 56.5096 39.3521 57.0372 40.8892 57.2478C42.537 57.4735 44.0965 57.142 45.7368 57.1302C45.8126 57.1299 45.8889 57.1302 45.9648 57.1321C47.8269 57.1757 49.3132 58.9476 49.3132 61.1086C49.3132 63.8301 48.3375 66.2874 46.7712 68.0335C49.0332 66.3194 50.529 63.3518 50.529 59.984V57.0983V47.0595H49.3132Z" fill="#F3618E"/>
<path d="M32.8783 39.36C32.8783 42.7911 30.3936 45.5728 27.3281 45.5728C24.263 45.5728 21.7782 42.7911 21.7782 39.36C21.7782 35.9285 24.263 33.1471 27.3281 33.1471C30.3936 33.1471 32.8783 35.9285 32.8783 39.36Z" fill="#F6859D"/>
<path d="M27.3281 43.6659C25.267 43.6659 23.5902 41.7343 23.5902 39.3596C23.5902 36.9857 25.267 35.0537 27.3281 35.0537C29.3891 35.0537 31.0662 36.9857 31.0662 39.3596C31.0662 41.7343 29.3891 43.6659 27.3281 43.6659Z" fill="#F3618E"/>
<path d="M62.7221 39.36C62.7221 42.7911 60.2374 45.5728 57.172 45.5728C54.1069 45.5728 51.6219 42.7911 51.6219 39.36C51.6219 35.9285 54.1069 33.1471 57.172 33.1471C60.2374 33.1471 62.7221 35.9285 62.7221 39.36Z" fill="#F6859D"/>
<path d="M57.172 43.6659C55.1106 43.6659 53.434 41.7343 53.434 39.3596C53.434 36.9857 55.1106 35.0537 57.172 35.0537C59.2329 35.0537 60.9096 36.9857 60.9096 39.3596C60.9096 41.7343 59.2329 43.6659 57.172 43.6659Z" fill="#F3618E"/>
<path d="M48.4286 14.6058C53.2686 14.6058 57.1921 18.741 57.1921 23.8419V37.3992H57.1705C56.9933 45.0873 54.6016 48.3595 51.0013 51.7421C49.6277 53.0341 47.0595 55.0662 45.0581 55.8066C43.2346 56.4812 41.2518 56.4792 39.4291 55.8029C37.4167 55.0564 34.83 53.0128 33.4522 51.7075C29.8735 48.3174 27.4962 45.0607 27.319 37.3992C27.3118 37.0904 27.308 36.7737 27.308 36.4535V23.8419C27.308 18.741 31.2316 14.6058 36.0719 14.6058H48.4286Z" fill="#F89DAD"/>
<path d="M28.1653 43.6659L27.4768 31.0244L25.394 27.3262L26.3333 40.1221C26.9313 43.5058 28.1653 43.6659 28.1653 43.6659Z" fill="#661815"/>
<path d="M56.3018 43.6659L56.9903 31.0244L58.9845 27.5261L58.134 40.1221C57.5362 43.5058 56.3018 43.6659 56.3018 43.6659Z" fill="#661815"/>
<path d="M44.0866 42.4895L43.4482 43.2748C42.7866 44.0885 41.7139 44.0885 41.0519 43.2748L40.4135 42.4895C40.2287 42.2627 40.3596 41.8742 40.6206 41.8742H43.8795C44.1405 41.8742 44.2714 42.2627 44.0866 42.4895Z" fill="#F46D82"/>
<path d="M50.5286 36.6287C50.5286 38.0076 49.746 39.1252 48.781 39.1252C47.8156 39.1252 47.033 38.0076 47.033 36.6287C47.033 35.2498 47.8156 34.1319 48.781 34.1319C49.746 34.1319 50.5286 35.2498 50.5286 36.6287Z" fill="#661815"/>
<path d="M48.781 38.3623C48.3159 38.3623 47.7954 37.6211 47.7954 36.6287C47.7954 35.6364 48.3159 34.8948 48.781 34.8948C49.246 34.8948 49.7661 35.6364 49.7661 36.6287C49.7661 37.6211 49.246 38.3623 48.781 38.3623Z" fill="#3F0F0E"/>
<path d="M33.9784 36.6287C33.9784 38.0076 34.7609 39.1252 35.7264 39.1252C36.6918 39.1252 37.474 38.0076 37.474 36.6287C37.474 35.2498 36.6918 34.1319 35.7264 34.1319C34.7609 34.1319 33.9784 35.2498 33.9784 36.6287Z" fill="#661815"/>
<path d="M35.7264 38.3623C35.2613 38.3623 34.7412 37.6211 34.7412 36.6287C34.7412 35.6364 35.2613 34.8948 35.7264 34.8948C36.1914 34.8948 36.7111 35.6364 36.7111 36.6287C36.7111 37.6211 36.1914 38.3623 35.7264 38.3623Z" fill="#3F0F0E"/>
<path d="M37.0768 31.0331C36.0313 30.9094 34.954 30.9997 33.9567 31.2793C33.4545 31.4204 32.9674 31.6135 32.4875 31.816C32.0623 31.9955 31.1557 32.5117 31.1557 33.094C31.1557 33.4013 31.9284 32.8679 32.1154 32.7894C32.9249 32.4499 33.7758 32.1817 34.6524 32.0922C35.5784 31.9977 36.4077 32.162 37.271 32.4875C37.7668 32.6741 38.2372 33.0049 38.7524 33.1267C39.0422 33.1968 39.4333 33.1263 39.6411 32.9002C39.7819 32.7473 39.7819 32.5485 39.7629 32.3509C39.7386 32.0998 39.6264 31.8616 39.478 31.6597C39.4162 31.5759 39.3483 31.4966 39.2785 31.4192C39.2728 31.5118 39.2789 31.6051 39.2967 31.6965C39.2793 31.6063 39.1032 31.5793 39.0369 31.5505C38.4174 31.2834 37.7539 31.1135 37.0768 31.0331Z" fill="#661815"/>
<path d="M47.1676 31.0331C48.2131 30.9094 49.2904 30.9997 50.2877 31.2793C50.7899 31.4204 51.277 31.6135 51.7569 31.816C52.1821 31.9955 53.0888 32.5117 53.0888 33.094C53.0888 33.4013 52.316 32.8679 52.129 32.7894C51.3195 32.4499 50.4686 32.1817 49.592 32.0922C48.666 31.9977 47.8368 32.162 46.9734 32.4875C46.4776 32.6741 46.0072 33.0049 45.4921 33.1267C45.2023 33.1968 44.8112 33.1263 44.6033 32.9002C44.4626 32.7473 44.4626 32.5485 44.4815 32.3509C44.5058 32.0998 44.6181 31.8616 44.7664 31.6597C44.8282 31.5759 44.8961 31.4966 44.9659 31.4192C44.9716 31.5118 44.9656 31.6051 44.9477 31.6965C44.9652 31.6063 45.1412 31.5793 45.2076 31.5505C45.827 31.2834 46.4905 31.1135 47.1676 31.0331Z" fill="#661815"/>
<path d="M41.8789 48.5104C38.8468 48.5104 36.7972 47.119 36.7658 47.097C36.5932 46.9768 36.5507 46.7397 36.6709 46.5667C36.7908 46.3945 37.0275 46.3509 37.2012 46.4711C37.3871 46.5997 41.8087 49.5764 47.3118 46.0701C47.4886 45.9571 47.7245 46.0091 47.8383 46.187C47.951 46.3645 47.899 46.6005 47.7215 46.7135C45.5869 48.0731 43.5787 48.5104 41.8789 48.5104Z" fill="#F3618E"/>
<path d="M59.2436 23.1724C59.2549 24.5976 59.1442 26.047 58.9845 27.5261C58.7937 29.2904 58.6343 30.9678 58.546 32.7287C58.5084 33.6505 58.3984 34.6558 58.3828 35.589C58.3828 35.4035 57.7911 34.9099 57.6663 34.8079C57.2903 34.5154 56.8583 34.3068 56.8317 33.7913C56.8052 33.1308 56.7824 32.4746 56.7024 31.8221C56.661 31.4579 56.4979 31.052 56.5245 30.6917C56.551 30.2934 56.6003 29.8954 56.6303 29.4971C56.6914 28.6129 56.7369 27.729 56.6421 26.849C56.4368 24.8991 55.8033 23.01 54.5932 21.4585C52.9052 19.2963 50.3674 17.931 47.6665 17.7106C47.4127 17.6917 47.1585 17.6803 46.9006 17.6803H37.1781C31.7649 17.6803 27.3756 22.1265 27.3756 27.6118V31.0558C27.0444 31.0566 26.5921 31.4105 26.288 31.5315C25.541 31.8286 25.6319 31.1416 25.5587 30.5536C25.378 29.1007 25.2367 27.6437 25.0984 26.1866C24.8551 23.6246 24.9664 21.3125 25.9072 18.8987C26.8722 16.4232 28.3675 14.1619 30.2229 12.2641C32.0369 10.4091 34.3797 8.41719 37.0552 8.1581C37.6986 8.0955 38.351 8.12168 38.9807 8.27038C39.7474 8.4517 40.4776 8.79046 41.0978 9.27753C41.1521 9.3204 41.2086 9.36515 41.2761 9.37729C41.3956 9.39854 41.5049 9.31356 41.5986 9.23656C43.29 7.84817 45.4489 7.82807 47.4764 8.36104C52.8502 9.7737 57.854 14.5743 59.0053 20.1138C59.2109 21.1019 59.2356 22.1656 59.2436 23.1724Z" fill="#661815"/>
<path d="M37.032 40.99C36.7244 41.6193 35.3887 41.617 33.9749 41.6387C32.5619 41.6167 31.2255 41.6186 30.9178 40.99C30.5969 40.3827 31.9166 39.1263 33.9749 39.1255C36.0332 39.1259 37.353 40.3812 37.032 40.99Z" fill="#F3618E"/>
<path d="M53.5823 40.99C53.2746 41.6189 51.9386 41.6167 50.5252 41.6387C49.1121 41.617 47.7757 41.6189 47.4681 40.99C47.1472 40.3819 48.4665 39.1263 50.5252 39.1255C52.5839 39.1259 53.9036 40.3819 53.5823 40.99Z" fill="#F3618E"/>
<path d="M65.0399 76.5604V77.8312C64.2091 78.366 63.3594 78.8705 62.4907 79.3447C61.5348 79.8643 60.5523 80.3538 59.5584 80.7976C54.2742 83.1799 48.4134 84.5 42.2529 84.5C36.358 84.5 30.7475 83.2937 25.6455 81.1125C25.5847 81.0859 25.5278 81.0593 25.4672 81.0328C25.2888 80.9569 25.1181 80.881 24.9437 80.7976C24.4012 80.5549 23.8663 80.3045 23.3429 80.0389C22.0075 79.3675 20.7102 78.6315 19.4584 77.8273V76.4692C19.4773 76.2569 19.5987 76.0407 19.8151 75.9914C20.6951 75.7524 21.0895 74.6826 21.173 74.3981V62.1151C21.173 62.0468 21.1807 61.9784 21.1958 61.914C21.2641 61.5726 21.5182 61.2881 21.8672 61.1895C22.3717 61.0453 22.9067 60.8936 23.4757 60.738C24.2266 60.5257 25.0271 60.3056 25.8768 60.0856C26.2031 60.0022 26.5294 60.0932 26.757 60.2981L26.8365 60.3701C26.992 60.537 27.0869 60.7646 27.0869 61.0188V66.1436C27.0869 76.5793 30.7513 77.4973 35.2654 77.4973H49.1948C53.7204 77.4973 57.3734 75.8054 57.3734 66.1436V61.0111C57.3734 60.757 57.4682 60.5332 57.6276 60.3625L57.711 60.2867C57.9386 60.0894 58.2611 59.9983 58.5797 60.0817C59.437 60.3056 60.2564 60.5257 61.0113 60.738C61.5765 60.8936 62.1 61.0415 62.5931 61.1895C62.9421 61.2881 63.1963 61.5726 63.2646 61.914C63.2797 61.9784 63.2873 62.0468 63.2873 62.1151V74.3184C63.2873 74.3184 63.6629 75.7069 64.6681 75.9951C64.8768 76.0597 65.0057 76.2493 65.0361 76.4692L65.0399 76.5604Z" fill="#731C18"/>
<path d="M26.1422 75.8927C26.1422 76.7401 25.4552 77.4271 24.6079 77.4271C23.7605 77.4271 23.0735 76.7401 23.0735 75.8927C23.0735 75.0453 23.7605 74.3583 24.6079 74.3583C25.4552 74.3583 26.1422 75.0453 26.1422 75.8927Z" fill="#F35F42"/>
<path d="M61.4142 75.8927C61.4142 76.7401 60.7272 77.4271 59.8797 77.4271C59.0327 77.4271 58.3457 76.7401 58.3457 75.8927C58.3457 75.0453 59.0327 74.3583 59.8797 74.3583C60.7272 74.3583 61.4142 75.0453 61.4142 75.8927Z" fill="#F35F42"/>
<path d="M57.9641 32.761C57.8571 33.4821 57.7558 34.289 57.5206 34.9832C57.3658 35.4372 56.8154 36.1102 56.8154 36.6018C56.7513 35.3413 56.372 34.0485 55.7472 32.9427C55.6099 32.7014 55.4555 32.4697 55.2833 32.2519C54.9589 31.8415 54.569 31.4693 54.1179 31.2011C53.5865 30.8851 53.2075 30.8582 52.6062 30.8795C51.1355 30.931 49.6375 30.8021 48.229 30.3571C46.8774 29.93 45.7409 28.99 44.8339 27.9066C45.3927 28.8056 45.9955 29.6773 46.6388 30.5179C46.5201 30.3628 46.1267 30.2376 45.9545 30.1287C45.7072 29.9728 45.4678 29.804 45.2372 29.6242C44.7748 29.2635 44.3469 28.8591 43.955 28.4232C43.1656 27.5458 42.523 26.5444 42.0094 25.4837C42.1653 25.9628 41.7537 26.7663 41.517 27.1771C41.1471 27.8197 40.5812 28.3265 39.9879 28.7715C37.9258 30.3184 35.2552 31.2569 32.744 30.6735C33.8414 30.6579 34.9233 30.1557 35.6433 29.3276C34.6046 29.8404 33.398 29.8621 32.2857 30.1853C29.402 31.0232 27.7959 33.7033 27.6487 36.6018C27.6487 36.1102 27.0986 35.4372 26.9435 34.9832C26.7085 34.289 26.607 33.4821 26.5 32.761C25.8657 28.4794 26.1779 22.7635 29.652 19.6734C32.0506 17.5362 35.2442 16.6212 38.384 16.3253C41.9601 15.9877 45.6658 16.2654 49.1945 16.8943C51.3908 17.2858 53.3797 18.3548 54.9456 19.9636C58.3263 23.411 58.6366 28.2214 57.9641 32.761Z" fill="#661815"/>
</svg>
