<svg width="85" height="85" viewBox="0 0 85 85" fill="none" xmlns="http://www.w3.org/2000/svg">
<path d="M84.5 42.2462C84.5 51.7301 81.3769 60.4822 76.1102 67.5295C75.6337 68.1664 75.1379 68.792 74.6232 69.3982C74.3371 69.7453 74.0435 70.0848 73.7419 70.4205C73.4753 70.7179 73.2044 71.0115 72.9298 71.3013C65.2304 79.4317 54.335 84.4996 42.2538 84.4996C30.1764 84.4996 19.2776 79.4317 11.5778 71.3051L11.5744 71.3013L11.5513 71.2782C10.9716 70.6682 10.411 70.0427 9.86964 69.3982C9.35867 68.792 8.86666 68.1664 8.38983 67.5295C3.12347 60.4822 0 51.7301 0 42.2462C0 18.915 18.9154 1.23618e-05 42.2538 1.23618e-05C65.585 1.23618e-05 84.5 18.915 84.5 42.2462Z" fill="#ECCCFF"/>
<path d="M66.2504 54.7762C65.5486 55.3603 64.6913 55.8038 63.8074 56.0318C62.5708 56.3466 61.2469 56.4225 60.0141 56.0507C58.6788 55.6486 57.6508 54.7079 56.8276 53.6074C56.4672 53.1257 56.1751 52.6026 55.8641 52.0866C55.9703 52.2611 55.9893 52.6139 56.0575 52.8226C56.6683 54.7003 59.0771 56.5173 61.1596 56.5173C59.9951 56.5173 58.8419 56.7294 57.6735 56.6729C56.5279 56.6198 55.3747 56.4225 54.3278 55.9445C52.8787 55.2845 51.7786 54.074 51.0768 52.6591C51.2475 53.0047 51.3196 53.3992 51.4979 53.7482C51.6838 54.1123 51.9076 54.4575 52.1617 54.7724C53.0608 55.891 54.8968 56.7294 56.3496 56.8318C53.4705 56.8318 50.0716 56.8166 47.1962 56.7677C44.7601 56.7256 42.2932 56.8144 39.8435 56.8144C38.8538 56.8144 37.8994 56.7529 36.9085 56.7677C34.0331 56.8166 30.6343 56.8318 27.7589 56.8318C29.2117 56.7294 31.0477 55.891 31.943 54.7724C32.2009 54.4575 32.4247 54.1123 32.6106 53.7482C32.7851 53.3992 32.861 53.0047 33.0317 52.6591C32.3299 54.074 31.226 55.2845 29.7808 55.9445C28.7338 56.4225 27.5806 56.6198 26.435 56.6729C25.2666 56.7294 24.1134 56.5173 22.9489 56.5173C25.0314 56.5173 27.4402 54.7003 28.051 52.8226C28.1192 52.6139 28.1382 52.2611 28.2444 52.0866C27.9334 52.6026 27.6413 53.1257 27.2809 53.6074C26.4577 54.7079 25.4297 55.6486 24.0944 56.0507C22.8616 56.4225 21.5377 56.3466 20.3011 56.0318C19.4172 55.8038 18.5599 55.3603 17.8581 54.7762C18.3702 54.8065 18.8861 54.8369 19.3906 54.7568C20.2897 54.6206 21.128 54.1313 21.6894 53.4178C22.8654 51.9194 22.395 49.1847 22.395 47.3866V40.1033C22.395 38.1991 22.395 36.2986 22.3912 34.3943C22.3912 33.3052 22.4861 32.2131 22.4178 31.1316C22.4216 27.422 22.2547 23.9321 23.901 20.4949C24.6066 19.0197 25.6839 16.9447 27.2278 16.2467C28.2672 15.7763 29.4242 15.5559 30.566 15.6056C31.6057 15.6477 32.6573 15.8662 33.7099 15.9239C36.4412 15.9216 39.1724 15.9193 41.9036 15.9171C43.9217 15.9156 45.9398 15.9137 47.9579 15.9121C48.9021 15.9114 49.8656 16.1056 50.8022 15.9679C51.6151 15.8488 52.2843 15.8704 53.112 16.0635C54.8467 16.4675 56.4729 17.3184 57.8131 18.4894C58.7391 19.2985 59.5323 20.2639 60.1263 21.342C60.8205 22.6022 60.9119 23.8673 61.0496 25.286C61.099 25.7947 61.1445 26.3064 61.2014 26.8223C61.4745 29.3377 61.7173 31.8603 61.7135 34.3943V47.3866C61.7135 49.1847 61.2431 51.9194 62.4191 53.4178C62.9805 54.1313 63.8188 54.6206 64.7179 54.7568C65.2224 54.8369 65.7383 54.8065 66.2504 54.7762Z" fill="#501F5F"/>
<path d="M70.7091 73.4813V73.4851L70.6978 73.4927C68.2131 75.7574 65.4591 77.7261 62.4889 79.3459C61.5329 79.8656 60.5542 80.355 59.5566 80.7988C54.2762 83.1807 48.4154 84.5011 42.2549 84.5011C36.36 84.5011 30.7496 83.2948 25.6475 81.1136C25.5868 81.0871 25.5299 81.0605 25.4692 81.0336C25.2909 80.9581 25.1164 80.8822 24.9419 80.7988C24.4033 80.5556 23.8684 80.3056 23.3449 80.0401C19.8626 78.2989 16.6572 76.0798 13.8083 73.4851L16.2285 68.6709C17.1882 66.767 18.5425 65.0976 20.2002 63.7775C20.7085 63.3754 21.2434 63.0036 21.8048 62.6702C21.911 62.6057 22.021 62.5408 22.131 62.4805C23.6484 61.5887 25.3554 60.72 26.8158 60.2803L26.8348 60.2766C27.1079 60.2083 27.3848 60.14 27.6656 60.0713L27.677 60.0675L27.6997 60.0637C28.0335 59.9803 28.3711 59.901 28.7125 59.8214H28.7163C28.9326 59.7682 29.1564 59.7151 29.3764 59.6658C33.7198 58.6757 38.4805 57.8412 42.2436 57.8336H42.2625C46.0256 57.8412 50.7863 58.6757 55.1221 59.6658C55.3497 59.7189 55.5773 59.7717 55.8011 59.8214L55.858 59.8403C56.1577 59.9048 56.4536 59.9803 56.7457 60.0486L56.7646 60.0527C57.0947 60.1358 57.4209 60.2121 57.7396 60.2955L57.7699 60.3031C59.3252 60.7811 61.146 61.737 62.7203 62.674C65.1139 64.0965 67.0409 66.1866 68.2927 68.6709L70.7091 73.4813Z" fill="#E22693"/>
<path d="M42.2329 78.0258L38.2305 70.5088H46.2327L42.2329 78.0258Z" fill="#BE1F72"/>
<path d="M52.8867 59.7607C52.8867 66.3327 48.1059 71.6806 42.2314 71.6806C36.357 71.6806 31.5766 66.3327 31.5766 59.7607V59.7497C31.5769 59.1108 31.9897 58.5619 32.5473 58.4258C35.865 57.617 39.3883 56.9755 42.2254 56.9725H42.2409C45.078 56.9755 48.6009 57.617 51.916 58.4258C52.4736 58.5619 52.8863 59.1108 52.8867 59.7493V59.7607Z" fill="#BE1F72"/>
<path d="M25.5792 80.4764L25.4692 81.0336C25.2909 80.9581 25.1164 80.8822 24.9419 80.7988C24.4033 80.5556 23.8684 80.3057 23.3449 80.0401C19.8626 78.2989 16.6572 76.0798 13.8083 73.4851L16.2285 68.6709C17.1882 66.767 18.5425 65.0976 20.2002 63.7775C20.7085 63.3754 21.2434 63.0036 21.8048 62.6702C21.911 62.6057 22.021 62.5408 22.131 62.4805C23.6028 64.0282 27.7187 69.4869 25.5792 80.4764Z" fill="#BE1F72"/>
<path d="M58.9382 80.4764L59.0483 81.0336C59.2265 80.9581 59.401 80.8822 59.5755 80.7988C60.1142 80.5556 60.6491 80.3057 61.1726 80.0401C64.6549 78.2989 67.8603 76.0798 70.7091 73.4851L68.2889 68.6709C67.3292 66.767 65.975 65.0976 64.3173 63.7775C63.809 63.3754 63.2741 63.0036 62.7127 62.6702C62.6064 62.6057 62.4964 62.5408 62.3864 62.4805C60.9146 64.0282 56.7988 69.4869 58.9382 80.4764Z" fill="#BE1F72"/>
<path d="M28.7125 59.8213C28.4622 59.9048 28.1246 59.9841 27.6997 60.0637C28.0335 59.9803 28.3711 59.901 28.7125 59.8213Z" fill="#B0E5F9"/>
<path d="M56.7457 60.0486C56.3815 59.9803 56.0894 59.9124 55.858 59.8403C56.1577 59.9048 56.4536 59.9803 56.7457 60.0486Z" fill="#B0E5F9"/>
<path d="M50.5287 59.3608V45.5885H33.9713V59.3627L33.9709 59.3878C33.9709 65.0536 37.6778 69.6466 42.25 69.6466C46.8226 69.6466 50.5295 65.0536 50.5295 59.3878L50.5287 59.3608Z" fill="#F6859D"/>
<path d="M49.3133 47.0592H33.9713V52.1818C33.9713 52.4641 34.4428 53.0145 34.5965 53.2542C34.8005 53.5732 35.0179 53.8843 35.2523 54.1821C35.6484 54.6843 36.0933 55.1498 36.5975 55.545C37.8281 56.5093 39.3522 57.037 40.8889 57.2475C42.5372 57.4732 44.0962 57.1417 45.7365 57.1299C45.8128 57.1295 45.8886 57.1299 45.9649 57.1318C47.827 57.1754 49.3133 58.9473 49.3133 61.1088C49.3133 63.8298 48.3376 66.2872 46.771 68.0333C49.033 66.319 50.5287 63.3515 50.5287 59.9837V57.0981V47.0592H49.3133Z" fill="#F3618E"/>
<path d="M32.8784 39.3598C32.8784 42.7909 30.3934 45.5726 27.3283 45.5726C24.2629 45.5726 21.7782 42.7909 21.7782 39.3598C21.7782 35.9283 24.2629 33.147 27.3283 33.147C30.3934 33.147 32.8784 35.9283 32.8784 39.3598Z" fill="#F6859D"/>
<path d="M27.3283 43.6657C25.267 43.6657 23.5904 41.7341 23.5904 39.3594C23.5904 36.9855 25.267 35.0539 27.3283 35.0539C29.3893 35.0539 31.066 36.9855 31.066 39.3594C31.066 41.7341 29.3893 43.6657 27.3283 43.6657Z" fill="#F3618E"/>
<path d="M62.7221 39.3598C62.7221 42.7909 60.2371 45.5726 57.172 45.5726C54.1066 45.5726 51.6219 42.7909 51.6219 39.3598C51.6219 35.9283 54.1066 33.147 57.172 33.147C60.2371 33.147 62.7221 35.9283 62.7221 39.3598Z" fill="#F6859D"/>
<path d="M57.1717 43.6657C55.1107 43.6657 53.4341 41.7341 53.4341 39.3594C53.4341 36.9855 55.1107 35.0539 57.1717 35.0539C59.233 35.0539 60.9097 36.9855 60.9097 39.3594C60.9097 41.7341 59.233 43.6657 57.1717 43.6657Z" fill="#F3618E"/>
<path d="M48.4283 14.6057C53.2687 14.6057 57.1922 18.7409 57.1922 23.8418V37.399H57.1705C56.993 45.0871 54.6013 48.3592 51.001 51.7418C49.6278 53.0338 47.0596 55.066 45.0582 55.8064C43.2348 56.4809 41.252 56.479 39.4292 55.8026C37.4168 55.0561 34.8301 53.0126 33.452 51.7073C29.8737 48.3171 27.4964 45.0605 27.3188 37.399C27.3116 37.0902 27.3082 36.7735 27.3082 36.4533V23.8418C27.3082 18.7409 31.2317 14.6057 36.0717 14.6057H48.4283Z" fill="#F89DAD"/>
<path d="M28.1655 43.6657L27.477 31.0242L25.3941 27.3257L26.3333 40.1219C26.9311 43.506 28.1655 43.6657 28.1655 43.6657Z" fill="#501F5F"/>
<path d="M56.3018 43.6657L56.9903 31.0242L58.9841 27.5263L58.134 40.1219C57.5362 43.506 56.3018 43.6657 56.3018 43.6657Z" fill="#501F5F"/>
<path d="M44.0868 42.4893L43.4483 43.2746C42.7864 44.0882 41.7136 44.0882 41.0521 43.2746L40.4136 42.4893C40.2289 42.2625 40.3598 41.874 40.6207 41.874H43.8797C44.1406 41.874 44.2715 42.2625 44.0868 42.4893Z" fill="#F46D82"/>
<path d="M50.5287 36.6285C50.5287 38.0074 49.7461 39.1254 48.7807 39.1254C47.8153 39.1254 47.0331 38.0074 47.0331 36.6285C47.0331 35.2496 47.8153 34.1321 48.7807 34.1321C49.7461 34.1321 50.5287 35.2496 50.5287 36.6285Z" fill="#501F5F"/>
<path d="M48.7807 38.3625C48.3156 38.3625 47.7956 37.6209 47.7956 36.629C47.7956 35.6362 48.3156 34.895 48.7807 34.895C49.2461 34.895 49.7658 35.6362 49.7658 36.629C49.7658 37.6209 49.2461 38.3625 48.7807 38.3625Z" fill="#3A1A45"/>
<path d="M33.9785 36.6285C33.9785 38.0074 34.7611 39.1254 35.7261 39.1254C36.6916 39.1254 37.4741 38.0074 37.4741 36.6285C37.4741 35.2496 36.6916 34.1321 35.7261 34.1321C34.7611 34.1321 33.9785 35.2496 33.9785 36.6285Z" fill="#501F5F"/>
<path d="M35.7262 38.3625C35.2611 38.3625 34.7414 37.6209 34.7414 36.629C34.7414 35.6362 35.2611 34.895 35.7262 34.895C36.1916 34.895 36.7113 35.6362 36.7113 36.629C36.7113 37.6209 36.1916 38.3625 35.7262 38.3625Z" fill="#3A1A45"/>
<path d="M37.0765 31.0329C36.0315 30.9093 34.9538 30.9996 33.9569 31.2791C33.4546 31.4202 32.9676 31.6137 32.4873 31.8159C32.0625 31.9953 31.1555 32.5116 31.1555 33.0939C31.1555 33.4011 31.9282 32.8678 32.1152 32.7893C32.9251 32.4498 33.7756 32.1816 34.6522 32.092C35.5782 31.9976 36.4078 32.1622 37.2712 32.4873C37.767 32.674 38.2373 33.0047 38.7521 33.1265C39.0419 33.1967 39.433 33.1261 39.6413 32.9C39.782 32.7472 39.7816 32.5484 39.7626 32.3508C39.7388 32.0996 39.6261 31.8614 39.4781 31.6596C39.4163 31.5758 39.3484 31.4965 39.2786 31.4191C39.2729 31.5117 39.279 31.6054 39.2964 31.6964C39.2794 31.6061 39.1034 31.5792 39.037 31.5504C38.4175 31.2837 37.7537 31.1134 37.0765 31.0329Z" fill="#501F5F"/>
<path d="M47.1677 31.0329C48.2128 30.9093 49.2905 30.9996 50.2878 31.2791C50.7896 31.4202 51.2771 31.6137 51.757 31.8159C52.1818 31.9953 53.0888 32.5116 53.0888 33.0939C53.0888 33.4011 52.3161 32.8678 52.1291 32.7893C51.3192 32.4498 50.4687 32.1816 49.5921 32.092C48.6661 31.9976 47.8369 32.1622 46.9731 32.4873C46.4777 32.674 46.0069 33.0047 45.4922 33.1265C45.2024 33.1967 44.8113 33.1261 44.603 32.9C44.4627 32.7472 44.4627 32.5484 44.4816 32.3508C44.5055 32.0996 44.6182 31.8614 44.7661 31.6596C44.828 31.5758 44.8962 31.4965 44.9657 31.4191C44.9714 31.5117 44.9653 31.6054 44.9478 31.6964C44.9653 31.6061 45.1413 31.5792 45.2073 31.5504C45.8268 31.2837 46.4906 31.1134 47.1677 31.0329Z" fill="#501F5F"/>
<path d="M41.879 48.5102C38.8466 48.5102 36.7974 47.1188 36.7655 47.0968C36.5933 46.9766 36.5508 46.7395 36.6711 46.5665C36.7906 46.3943 37.0276 46.3506 37.2014 46.4709C37.3873 46.5995 41.8085 49.5762 47.3115 46.0699C47.4887 45.9569 47.7242 46.0089 47.8384 46.1868C47.9511 46.3643 47.8991 46.6003 47.7212 46.7133C45.5871 48.0732 43.5784 48.5102 41.879 48.5102Z" fill="#F3618E"/>
<path d="M27.3629 35.1962C27.4129 35.3635 27.6238 35.6598 27.6238 35.7937C27.6189 34.8943 27.8397 33.9945 28.2604 33.1994C28.4178 32.902 28.6059 32.6152 28.8567 32.3906C29.1977 32.0853 29.6355 31.9111 30.0031 31.6384C30.6768 31.1384 31.0644 30.3513 31.4271 29.5949C31.1991 30.3301 30.8888 31.0398 30.5034 31.7059C30.2993 32.0587 30.0592 32.4141 29.6992 32.6053C30.6271 31.9483 31.3414 31.0197 31.8554 30.0054C32.5169 28.7004 33.1076 27.0469 33.0025 25.5648C33.045 26.1611 33.6587 26.82 34.0051 27.2806C35.0395 28.6572 36.4078 29.6951 38.0196 30.3065C39.4497 30.849 40.9963 31.245 42.5466 31.2443C43.3216 31.2439 44.0974 31.1419 44.839 30.9139C45.5969 30.6806 46.3662 30.343 46.9735 29.8237C46.3385 30.0645 45.7012 30.3058 45.0397 30.459C44.3652 30.6157 43.6695 30.6794 42.978 30.648C42.6244 30.632 42.2386 30.5926 41.9276 30.409C42.0179 30.4625 42.2864 30.4188 42.4036 30.4317C42.6073 30.4545 42.8088 30.4772 43.0144 30.4814C43.41 30.4905 43.8061 30.4545 44.196 30.3862C45.2536 30.1999 46.1864 29.7125 47.1833 29.3487C48.459 28.8833 50.0519 28.4539 51.4008 28.8233C52.4004 29.0972 53.291 29.6962 53.9503 30.4928C54.6111 31.2909 54.9571 32.336 54.9624 33.3678C54.9666 34.1929 54.7587 35.038 54.2584 35.6939C53.7724 36.3308 52.9925 36.7599 52.1811 36.7223C52.7486 36.9875 53.4196 37.0114 54.0315 36.9298C54.2409 36.9021 55.8637 36.5167 55.8174 36.3065C56.1964 38.0227 56.3986 39.7783 56.4198 41.5357C56.7662 40.6041 57.1193 39.7384 57.3242 38.7666C57.5871 37.5212 57.8207 36.269 57.9907 35.0069C58.3173 32.5852 58.2312 30.2606 58.0847 27.8454C58.0305 26.949 57.8021 26.2442 57.518 25.4127C57.2733 24.6961 57.2946 23.8995 57.0507 23.156C56.6019 21.7896 55.7738 20.5837 54.7094 19.6346C54.5664 19.5071 54.4203 19.3843 54.2705 19.2651C52.639 17.967 50.8238 17.4048 48.8304 16.9367C46.6727 16.4299 44.4896 15.9998 42.2758 15.8378C38.3056 15.5476 33.9008 16.1686 30.6654 18.6506C26.4145 21.9114 25.6122 27.6766 26.6649 32.6031C26.7916 33.196 26.9437 33.7832 27.1212 34.3628C27.2054 34.6378 27.2847 34.9125 27.3629 35.1962Z" fill="#501F5F"/>
<path d="M64.6685 23.101C64.1792 23.8866 63.4812 24.558 62.6391 24.9446C62.2142 25.1418 61.7628 25.2409 61.2962 25.2788C61.2166 25.286 61.1331 25.286 61.0497 25.286C60.7424 25.2822 60.4351 25.2598 60.1696 25.4643C59.9609 25.6278 59.8206 25.8626 59.6954 26.0944C59.0885 27.2096 58.7319 28.4501 58.5953 29.7091C58.4853 30.7071 58.5915 31.7234 58.546 32.7286C58.5081 33.6508 58.3981 34.6557 58.3829 35.5888C58.3829 35.4033 57.7911 34.9098 57.666 34.8078C57.2904 34.5157 56.858 34.307 56.8314 33.7911C56.8049 33.1307 56.7821 32.4745 56.7024 31.822C56.6607 31.4582 56.4976 31.0519 56.5242 30.6919C56.5507 30.2933 56.6 29.8953 56.6304 29.4967C56.6911 28.6128 56.7366 27.7289 56.6417 26.8489C56.4369 24.8995 55.8034 23.01 54.5933 21.4585C52.9052 19.2966 50.3675 17.931 47.6666 17.711C47.4124 17.692 47.1583 17.6802 46.9003 17.6802H37.1779C31.7647 17.6802 27.3757 22.1265 27.3757 27.6117V31.0557C27.2695 31.0557 25.8053 31.8068 25.8091 31.6744C25.8622 29.9371 25.7143 27.7972 25.3425 26.0978C24.9328 24.2504 24.2728 22.3841 24.5193 20.4612C24.709 18.9666 25.4753 17.5551 26.6209 16.5957C27.4668 15.886 28.4607 15.5829 29.4773 15.2073C28.4872 15.0556 27.4858 14.9039 26.4919 15.0177C27.7551 14.5397 29.1473 14.4145 30.475 14.6497C30.7367 14.6952 31.0174 14.7635 31.1995 14.9608C31.3816 13.792 31.962 12.6961 32.7206 11.7853C33.8321 10.4618 35.4746 9.76762 35.5998 9.71413C35.486 9.81314 33.6007 11.4212 32.9976 12.5554C33.5742 11.7743 34.2494 11.065 35.0043 10.4542C37.6407 8.31476 41.1875 7.41951 44.537 7.88951C49.3205 8.56511 53.258 11.3225 56.4066 14.82L56.4141 14.828C57.4194 15.9471 58.345 17.1378 59.1909 18.3593C59.4033 18.6631 59.5968 18.9893 59.7902 19.3232C60.2948 20.2029 60.7728 21.1364 61.4176 21.842C61.8349 22.3044 62.4267 22.7107 63.0071 22.9341C63.246 23.0289 64.4827 23.4011 64.6685 23.101Z" fill="#501F5F"/>
<path d="M37.0318 40.9898C36.7246 41.6192 35.3885 41.6169 33.9751 41.6385C32.5621 41.6165 31.2257 41.6184 30.918 40.9898C30.5967 40.3825 31.9168 39.1262 33.9751 39.1254C36.0334 39.1258 37.3527 40.381 37.0318 40.9898Z" fill="#F3618E"/>
<path d="M53.582 40.9898C53.2747 41.6188 51.9383 41.6165 50.5253 41.6385C49.1122 41.6169 47.7758 41.6188 47.4682 40.9898C47.1473 40.3821 48.4666 39.1262 50.5253 39.1254C52.5836 39.1258 53.9033 40.3818 53.582 40.9898Z" fill="#F3618E"/>
</svg>
