<svg width="85" height="85" viewBox="0 0 85 85" fill="none" xmlns="http://www.w3.org/2000/svg">
<path d="M84.5013 42.2468C84.5013 51.7312 81.3778 60.483 76.1114 67.5308C75.6345 68.1679 75.1387 68.7931 74.6239 69.3996C74.3379 69.7463 74.0443 70.0858 73.7431 70.4216C73.4761 70.719 73.2052 71.0125 72.9309 71.3024C65.231 79.4328 54.3358 84.5013 42.2545 84.5013C30.1769 84.5013 19.2777 79.4328 11.578 71.3062L11.5742 71.3024L11.5513 71.2795C10.9716 70.6692 10.411 70.044 9.86945 69.3996C9.35851 68.7931 8.86658 68.1679 8.38986 67.5308C3.12319 60.483 -3.05176e-05 51.7312 -3.05176e-05 42.2468C-3.05176e-05 18.9153 18.9153 -3.86546e-06 42.2545 -3.86546e-06C65.5857 -3.86546e-06 84.5013 18.9153 84.5013 42.2468Z" fill="#CAFCD2"/>
<path d="M72.9385 71.2819L72.9271 71.3053L72.9211 71.3111C72.846 71.3918 72.7705 71.4731 72.6897 71.5485C72.5448 71.7048 72.3998 71.8554 72.2436 72.0117C72.1453 72.1099 72.041 72.2143 71.9367 72.313C71.7861 72.4692 71.6298 72.6138 71.4792 72.7587C71.3749 72.863 71.2709 72.9612 71.1609 73.0598C71.0103 73.2044 70.854 73.3493 70.6977 73.4943C69.1166 74.9361 67.4316 76.2562 65.6422 77.4432H65.6365C64.6176 78.1267 63.5634 78.758 62.4864 79.3483C61.5309 79.8695 60.5525 80.3558 59.5564 80.8018C58.4563 81.294 57.3327 81.7458 56.1863 82.1395C55.5899 82.3477 54.9875 82.5446 54.3738 82.7245C50.5344 83.8883 46.4641 84.5021 42.2541 84.5021C38.0441 84.5021 33.9734 83.8883 30.1283 82.7357C29.5206 82.5563 28.9125 82.3595 28.3162 82.1509C27.4126 81.8382 26.5209 81.4907 25.6466 81.1145C25.4092 81.0102 25.1719 80.9119 24.9401 80.8018C22.815 79.8463 20.7883 78.7231 18.8716 77.4432C17.0765 76.2506 15.3856 74.93 13.8048 73.4882C13.6484 73.3493 13.492 73.2044 13.3357 73.0542C13.2315 72.9612 13.1216 72.8569 13.0231 72.7587C12.8667 72.6138 12.7104 72.4635 12.5656 72.313C12.4613 72.2143 12.3571 72.1099 12.2529 72.0117C12.1082 71.8554 11.9519 71.7048 11.8071 71.5485C11.726 71.4675 11.6507 71.3862 11.5755 71.3053H11.5697L11.5581 71.2819L15.8142 65.2541C16.8739 63.7542 18.3909 62.6597 20.1397 62.1271L20.1802 62.1096C20.325 62.0634 20.4757 62.0228 20.632 61.9709L20.6551 61.9651C21.35 61.7565 22.1375 61.5365 22.9945 61.2991C24.0483 61.0035 25.2123 60.691 26.44 60.3784C26.5268 60.3552 26.6136 60.3378 26.7005 60.3146C27.5632 60.0947 28.4607 59.8746 29.3757 59.666C33.7188 58.6758 38.4785 57.842 42.2423 57.8364H42.2598C46.0236 57.842 50.7837 58.6758 55.1207 59.666C56.03 59.8746 56.9158 60.0889 57.7727 60.3089C57.8599 60.3321 57.9464 60.3552 58.0333 60.3727C59.2726 60.691 60.4482 61.0035 61.5077 61.2991C62.3533 61.5365 63.129 61.7565 63.8183 61.9651L63.8415 61.9709C64.0034 62.0171 64.1658 62.0634 64.3164 62.1096L64.3627 62.1271C65.3471 62.4284 66.2564 62.9028 67.0496 63.5341C67.2233 63.6673 67.391 63.8122 67.5533 63.9571C67.9702 64.3448 68.3465 64.7791 68.6823 65.2541L72.9385 71.2819Z" fill="#D9DCCC"/>
<path d="M55.6165 60.2938C55.6165 67.6351 49.6419 73.6098 42.3004 73.6098C34.9589 73.6098 28.9846 67.6351 28.9846 60.2938V60.2812C28.9854 59.568 29.5009 58.9547 30.1982 58.8025C34.344 57.8989 38.7471 57.1827 42.2928 57.179H42.3122C45.8575 57.1827 50.2606 57.8989 54.403 58.8025C55.1002 58.9547 55.6158 59.5677 55.6165 60.2812V60.2938Z" fill="#FAFDFA"/>
<path d="M65.6422 76.9914V77.4432H65.6365C64.6176 78.1267 63.5634 78.758 62.4864 79.3483C61.5309 79.8695 60.5525 80.3558 59.5564 80.8018C58.4563 81.294 57.3327 81.7458 56.1863 82.1395C55.59 82.3477 54.9876 82.5446 54.3738 82.7245C50.5344 83.8883 46.4641 84.5021 42.2541 84.5021C38.0441 84.5021 33.9734 83.8883 30.1284 82.7357C29.5206 82.5563 28.9126 82.3595 28.3162 82.1509C27.4126 81.8382 26.5209 81.4907 25.6466 81.1145C25.4092 81.0102 25.1719 80.9119 24.9401 80.8018C22.815 79.8463 20.7884 78.7231 18.8716 77.4432V76.8989C18.889 76.6788 19.0164 76.4588 19.2365 76.4068C20.1398 76.1636 20.545 75.0632 20.632 74.7738V62.1677C20.632 62.0984 20.6378 62.0286 20.6551 61.9651C20.7245 61.6116 20.9851 61.3222 21.3442 61.2179C21.8595 61.0733 22.4096 60.917 22.9945 60.7547C23.7646 60.5404 24.587 60.3146 25.4555 60.0889C25.8319 59.9903 26.2025 60.1178 26.44 60.3784C26.6021 60.5521 26.7005 60.7839 26.7005 61.0441V66.3023C26.7005 77.012 30.4588 77.953 35.0909 77.953H49.3824C54.0263 77.953 57.7727 76.2156 57.7727 66.3023V61.0384C57.7727 60.7778 57.8713 60.546 58.0333 60.3727C58.2708 60.1178 58.6414 59.9845 59.012 60.0832C59.8925 60.3146 60.732 60.5404 61.5077 60.7547C62.087 60.917 62.6257 61.0673 63.129 61.2179C63.4883 61.3222 63.7489 61.6116 63.8183 61.9651C63.8358 62.0286 63.8415 62.0984 63.8415 62.1677V74.6929C63.8415 74.6929 64.2295 76.1174 65.2602 76.4126C65.4745 76.4763 65.6077 76.673 65.6365 76.8989L65.6422 76.9914Z" fill="#2F4292"/>
<path d="M52.5089 60.8325V47.0596H31.9921V60.8339L31.9913 60.859C31.9913 66.5249 36.5844 71.118 42.2507 71.118C47.9166 71.118 52.5097 66.5249 52.5097 60.859L52.5089 60.8325Z" fill="#F6859D"/>
<path d="M51.0026 47.0596H31.9921V50.7931C34.3258 54.984 37.5332 56.8068 41.2363 57.4135C42.7731 57.6661 44.8784 57.7753 46.8537 57.8155C49.1608 57.8621 51.0026 59.7543 51.0026 62.0622C51.0026 64.9681 49.794 67.592 47.8529 69.4565C50.6558 67.6261 52.5089 64.4571 52.5089 60.8609V57.7795V47.0596H51.0026Z" fill="#F3618E"/>
<path d="M32.39 39.3604C32.39 42.7916 29.7755 45.5733 26.5507 45.5733C23.3255 45.5733 20.7112 42.7916 20.7112 39.3604C20.7112 35.9292 23.3255 33.1475 26.5507 33.1475C29.7755 33.1475 32.39 35.9292 32.39 39.3604Z" fill="#F6859D"/>
<path d="M26.5505 43.6668C24.3819 43.6668 22.6178 41.7347 22.6178 39.3604C22.6178 36.9861 24.3819 35.0545 26.5505 35.0545C28.7191 35.0545 30.4834 36.9861 30.4834 39.3604C30.4834 41.7347 28.7191 43.6668 26.5505 43.6668Z" fill="#F3618E"/>
<path d="M63.7899 39.3604C63.7899 42.7916 61.1755 45.5733 57.9507 45.5733C54.7255 45.5733 52.111 42.7916 52.111 39.3604C52.111 35.9292 54.7255 33.1475 57.9507 33.1475C61.1755 33.1475 63.7899 35.9292 63.7899 39.3604Z" fill="#F6859D"/>
<path d="M57.9502 43.6668C55.7819 43.6668 54.0176 41.7347 54.0176 39.3604C54.0176 36.9861 55.7819 35.0545 57.9502 35.0545C60.119 35.0545 61.8833 36.9861 61.8833 39.3604C61.8833 41.7347 60.119 43.6668 57.9502 43.6668Z" fill="#F3618E"/>
<path d="M48.7621 14.6059C53.8636 14.6059 57.9988 18.7412 57.9988 23.8426V37.3996H57.9756C57.789 45.0878 55.2683 48.36 51.4737 51.7426C48.8805 54.0574 45.6925 55.8307 42.245 55.8307C38.7782 55.8307 35.575 54.0422 32.978 51.7081C29.2062 48.3179 26.7006 45.0612 26.5138 37.3996C26.5062 37.0908 26.5024 36.7744 26.5024 36.4539V23.8426C26.5024 18.7412 30.6378 14.6059 35.7388 14.6059H48.7621Z" fill="#F89DAD"/>
<path d="M48.3259 40.2553C48.3259 40.2553 48.3392 40.2299 48.3638 40.1828C48.3911 40.1369 48.42 40.0641 48.4769 39.9822C48.5839 39.8126 48.7462 39.574 48.9932 39.3285C49.2375 39.082 49.5667 38.8289 49.9654 38.6397C50.3607 38.442 50.8265 38.324 51.2973 38.2853C51.416 38.2819 51.5314 38.2747 51.6524 38.2804C51.7616 38.2823 51.8804 38.2922 51.9995 38.3047C52.232 38.3305 52.4539 38.3847 52.6652 38.4488C53.0859 38.5835 53.4486 38.7853 53.7236 38.9981C54.0032 39.2064 54.1928 39.4264 54.3211 39.5782C54.3867 39.6533 54.428 39.7208 54.4591 39.7637C54.4895 39.8073 54.5058 39.8308 54.5058 39.8308C54.5058 39.8308 54.4193 39.758 54.2683 39.6309C54.1192 39.5038 53.8897 39.343 53.6033 39.1814C53.3166 39.0201 52.9649 38.8707 52.5734 38.7717C52.3777 38.7224 52.1706 38.6943 51.9623 38.6708C51.861 38.6624 51.7571 38.6548 51.6421 38.6552C51.5389 38.6518 51.4293 38.6617 51.3231 38.6655C51.1099 38.6814 50.8971 38.7087 50.6922 38.7591C50.4885 38.8111 50.2871 38.8657 50.1016 38.9458C49.7257 39.0953 49.3994 39.2952 49.1362 39.4932C48.8756 39.6927 48.6658 39.8805 48.5364 40.0258C48.4025 40.1718 48.3259 40.2553 48.3259 40.2553Z" fill="#F3618E"/>
<path d="M36.2677 40.2553C36.2677 40.2553 36.191 40.1718 36.0571 40.0258C35.9278 39.8805 35.718 39.6927 35.457 39.4932C35.1941 39.2952 34.8675 39.0953 34.492 38.9458C34.3065 38.8657 34.105 38.8111 33.9013 38.7591C33.6965 38.7087 33.4837 38.6814 33.2705 38.6655C33.1643 38.6617 33.0546 38.6518 32.9514 38.6552C32.8361 38.6548 32.7322 38.6624 32.6309 38.6708C32.423 38.6943 32.2155 38.7224 32.0202 38.7717C31.6287 38.8707 31.2766 39.0201 30.9899 39.1814C30.7038 39.343 30.4743 39.5038 30.3252 39.6309C30.1739 39.758 30.0878 39.8308 30.0878 39.8308C30.0878 39.8308 30.1037 39.8073 30.134 39.7637C30.1652 39.7208 30.2069 39.6533 30.2725 39.5782C30.4007 39.4264 30.5904 39.2064 30.87 38.9981C31.145 38.7853 31.5077 38.5835 31.9283 38.4488C32.1396 38.3847 32.3616 38.3305 32.5937 38.3047C32.7132 38.2922 32.8319 38.2823 32.9412 38.2804C33.0622 38.2747 33.1775 38.2819 33.2963 38.2853C33.767 38.324 34.2329 38.442 34.6281 38.6397C35.0268 38.8289 35.3561 39.082 35.6 39.3285C35.8474 39.574 36.0097 39.8126 36.1167 39.9822C36.1736 40.0641 36.2024 40.1369 36.2294 40.1828C36.2544 40.2299 36.2677 40.2553 36.2677 40.2553Z" fill="#F3618E"/>
<path d="M63.0714 27.644C62.6139 27.4934 62.1564 27.3371 61.7046 27.1808C61.2008 27.0128 60.6914 26.839 60.2164 26.6019C60.089 27.0014 59.9733 27.4065 59.9558 27.8291C59.8633 29.7114 59.9327 31.6279 59.8519 33.5215C59.8052 34.5003 59.7821 35.4786 59.765 36.4747C59.765 36.2836 59.0469 35.8435 58.9138 35.7392C58.5082 35.4266 58.0507 35.2009 58.0219 34.6505C57.9931 33.9498 57.9699 33.2492 57.8888 32.5546C57.8425 32.1665 57.6688 31.7322 57.6919 31.3502C57.7268 30.9272 57.7788 30.4989 57.8076 30.076C57.8713 29.1378 57.9176 28.194 57.8194 27.2559C57.605 25.1771 56.9275 23.162 55.6419 21.5119C53.6674 18.987 50.6156 17.4817 47.4367 17.4817H37.0715C31.3039 17.4817 26.6252 22.2182 26.6252 28.0666V31.7379C26.5151 31.7379 24.7433 31.1704 24.7433 31.0258C24.7837 29.7922 24.9634 29.549 24.8706 28.3158C24.8243 27.7077 24.6969 27.1053 24.5522 26.5147C24.031 26.8045 23.4577 26.9953 22.8961 27.1865C22.4386 27.3428 21.9812 27.4934 21.5295 27.6497C22.8845 26.4976 23.7299 24.789 23.8631 23.0175V23.0114C23.8515 22.9014 23.84 22.7857 23.84 22.6757C23.8284 21.8996 23.9036 21.1238 24.0599 20.3594C24.3669 18.825 25.0791 17.5394 25.7046 16.1263C26.2315 14.9394 27.1406 14.5168 28.2176 13.8275C29.0688 13.2774 29.9952 12.768 30.5976 11.9399C30.9564 11.4475 31.1939 10.88 31.5069 10.3648C31.6689 10.0985 31.8714 9.85537 32.1032 9.64673C33.2788 8.56977 34.9172 8.35545 36.4463 8.39035C38.241 8.42487 40.1464 8.70861 41.5709 9.87244C41.2116 9.36905 40.7716 8.91726 40.2853 8.53488C40.9802 8.89412 41.646 9.32847 42.2598 9.82048C42.3584 9.58301 42.5784 9.41534 42.7928 9.27043C43.6091 8.74352 44.5647 8.44231 45.5316 8.41348C45.2536 8.54663 45.0104 8.76097 44.8367 9.01551C45.7979 8.77235 46.6898 8.54663 47.6973 8.56408C48.6931 8.57546 49.6373 8.77842 50.5579 9.14866C51.5943 9.60046 52.5093 10.3129 53.2156 11.1986C53.5343 11.6042 53.7486 12.1019 54.1018 12.4668C54.5012 12.8837 54.9356 13.2774 55.4625 13.5324C56.2731 13.9261 56.9507 14.4473 57.6688 14.9856C58.19 15.3737 58.5314 16.0049 58.8675 16.5607C60.0776 18.5701 60.7725 20.8746 60.7839 23.2314C60.7839 23.3012 60.7839 23.3764 60.7782 23.4458C61.01 25.0557 61.8264 26.5845 63.0714 27.644Z" fill="#661815"/>
<path d="M25.4457 39.3604H26.6282V31.0247H24.746V38.6606C24.746 39.0471 25.0593 39.3604 25.4457 39.3604Z" fill="#661815"/>
<path d="M59.0644 39.3604H57.882V31.0247H59.7643V38.6606C59.7643 39.0471 59.4509 39.3604 59.0644 39.3604Z" fill="#661815"/>
<path d="M59.3132 32.4385C59.1975 33.2204 59.0875 34.0947 58.8326 34.8477C58.6646 35.3397 58.0682 36.0692 58.0682 36.6022C57.9988 35.2354 57.5876 33.8341 56.9101 32.6354C56.0937 31.1996 54.623 29.9485 52.8625 30.4409C51.7912 30.7421 50.575 31.0604 49.4749 30.7478C48.6931 30.5278 47.9868 30.0122 47.5987 29.3002C46.9618 28.1595 47.483 27.1634 47.8654 26.0746C48.1431 25.2932 48.456 24.0076 47.6916 23.382C47.1416 22.9306 46.4349 22.6757 45.7228 22.6757C45.0161 22.6757 44.3447 22.9246 43.7886 23.3532C43.4066 23.6427 43.2385 23.8513 42.7116 23.8456H41.8084C41.2811 23.8513 41.1134 23.6427 40.7311 23.3532C40.1753 22.9246 39.5035 22.6757 38.7971 22.6757C38.0847 22.6757 37.3784 22.9306 36.8284 23.382C36.064 24.0076 36.3766 25.2932 36.6546 26.0746C37.0366 27.1634 37.5578 28.1595 36.9209 29.3002C36.5328 30.0122 35.8265 30.5278 35.0447 30.7478C33.9446 31.0604 32.7284 30.7421 31.6575 30.4409C29.897 29.9485 28.4263 31.1996 27.6095 32.6354C26.932 33.8341 26.5209 35.2354 26.4516 36.6022C26.4516 36.0692 25.8551 35.3397 25.6873 34.8477C25.4324 34.0947 25.3224 33.2204 25.2066 32.4385C24.9459 30.6841 24.865 28.9008 24.9692 27.1345C25.0329 26.1615 25.2761 25.4032 25.5829 24.4996C25.8494 23.7238 25.8261 22.8669 26.0925 22.0619C26.5731 20.5851 27.4707 19.2764 28.6231 18.2514C32.1264 15.1305 37.3321 14.5687 41.7966 14.5687C41.9529 14.5687 42.1092 14.5687 42.2598 14.5748C42.4104 14.5687 42.5667 14.5687 42.723 14.5687C47.1879 14.5687 52.3936 15.1305 55.8969 18.2514C57.0489 19.2764 57.9465 20.5851 58.4275 22.0619C58.6938 22.8669 58.6706 23.7238 58.9369 24.4996C59.2438 25.4032 59.487 26.1615 59.5507 27.1345C59.655 28.9008 59.5739 30.6841 59.3132 32.4385Z" fill="#661815"/>
<path d="M44.0871 42.4904L43.4487 43.2756C42.7871 44.0893 41.7143 44.0893 41.0523 43.2756L40.4139 42.4904C40.2292 42.2631 40.36 41.8751 40.621 41.8751H43.88C44.141 41.8751 44.2718 42.2631 44.0871 42.4904Z" fill="#F46D82"/>
<path d="M50.5291 36.6291C50.5291 38.0081 49.7466 39.126 48.7815 39.126C47.8161 39.126 47.0335 38.0081 47.0335 36.6291C47.0335 35.2502 47.8161 34.1327 48.7815 34.1327C49.7466 34.1327 50.5291 35.2502 50.5291 36.6291Z" fill="#661815"/>
<path d="M48.7815 38.3631C48.3164 38.3631 47.796 37.6215 47.796 36.6295C47.796 35.6368 48.3164 34.8955 48.7815 34.8955C49.2466 34.8955 49.7667 35.6368 49.7667 36.6295C49.7667 37.6215 49.2466 38.3631 48.7815 38.3631Z" fill="#3F0F0E"/>
<path d="M33.9787 36.6291C33.9787 38.0081 34.7613 39.126 35.7267 39.126C36.6921 39.126 37.4744 38.0081 37.4744 36.6291C37.4744 35.2502 36.6921 34.1327 35.7267 34.1327C34.7613 34.1327 33.9787 35.2502 33.9787 36.6291Z" fill="#661815"/>
<path d="M35.7267 38.3631C35.2617 38.3631 34.7416 37.6215 34.7416 36.6295C34.7416 35.6368 35.2617 34.8955 35.7267 34.8955C36.1918 34.8955 36.7115 35.6368 36.7115 36.6295C36.7115 37.6215 36.1918 38.3631 35.7267 38.3631Z" fill="#3F0F0E"/>
<path d="M37.0772 31.0338C36.0317 30.9098 34.9544 31.0001 33.9571 31.28C33.4548 31.4208 32.9678 31.6142 32.4879 31.8168C32.0626 31.9958 31.156 32.5121 31.156 33.0948C31.156 33.4017 31.9287 32.8687 32.1157 32.7902C32.9253 32.4503 33.7761 32.1825 34.6528 32.093C35.5788 31.9981 36.408 32.1628 37.2714 32.4879C37.7672 32.6749 38.2376 33.0053 38.7528 33.1271C39.0426 33.1972 39.4337 33.1271 39.6416 32.9006C39.7823 32.7477 39.7823 32.5489 39.7633 32.3517C39.7391 32.1002 39.6268 31.8619 39.4784 31.6605C39.4166 31.5763 39.3487 31.497 39.2789 31.4196C39.2732 31.5126 39.2793 31.6059 39.2971 31.6969C39.2797 31.607 39.1037 31.5797 39.0373 31.5513C38.4178 31.2842 37.7543 31.1139 37.0772 31.0338Z" fill="#661815"/>
<path d="M47.1681 31.0338C48.2136 30.9098 49.2909 31.0001 50.2882 31.28C50.7905 31.4208 51.2776 31.6142 51.7574 31.8168C52.1827 31.9958 53.0893 32.5121 53.0893 33.0948C53.0893 33.4017 52.3166 32.8687 52.1296 32.7902C51.3201 32.4503 50.4692 32.1825 49.5925 32.093C48.6665 31.9981 47.8373 32.1628 46.9739 32.4879C46.4781 32.6749 46.0077 33.0053 45.4926 33.1271C45.2027 33.1972 44.8116 33.1271 44.6038 32.9006C44.463 32.7477 44.463 32.5489 44.482 32.3517C44.5063 32.1002 44.6186 31.8619 44.7669 31.6605C44.8287 31.5763 44.8966 31.497 44.9664 31.4196C44.9721 31.5126 44.966 31.6059 44.9482 31.6969C44.9657 31.607 45.1417 31.5797 45.2081 31.5513C45.8275 31.2842 46.491 31.1139 47.1681 31.0338Z" fill="#661815"/>
<path d="M41.8793 48.511C38.8472 48.511 36.7976 47.1199 36.7661 47.0979C36.5935 46.9776 36.551 46.7402 36.6713 46.5676C36.7912 46.395 37.0279 46.3514 37.2016 46.4716C37.3875 46.6002 41.8091 49.5769 47.3123 46.0706C47.4891 45.958 47.725 46.0096 47.8388 46.1875C47.9515 46.3654 47.8995 46.601 47.722 46.714C45.5874 48.074 43.5792 48.511 41.8793 48.511Z" fill="#F3618E"/>
<path d="M25.7293 76.3063C25.7293 77.1757 25.0244 77.8806 24.1549 77.8806C23.2854 77.8806 22.5806 77.1757 22.5806 76.3063C22.5806 75.4368 23.2854 74.7316 24.1549 74.7316C25.0244 74.7316 25.7293 75.4368 25.7293 76.3063Z" fill="#7CAADE"/>
<path d="M61.9205 76.3063C61.9205 77.1757 61.2156 77.8806 60.3462 77.8806C59.4767 77.8806 58.7719 77.1757 58.7719 76.3063C58.7719 75.4368 59.4767 74.7316 60.3462 74.7316C61.2156 74.7316 61.9205 75.4368 61.9205 76.3063Z" fill="#7CAADE"/>
</svg>
