<svg width="85" height="86" viewBox="0 0 85 86" fill="none" xmlns="http://www.w3.org/2000/svg">
<path d="M84.5013 42.7482C84.5013 52.2326 81.3782 60.9845 76.1114 68.0319C75.6349 68.6688 75.1391 69.2944 74.6243 69.901C74.3383 70.2477 74.0447 70.5872 73.7431 70.9229C73.4764 71.2203 73.2056 71.5139 72.9309 71.8037C65.2314 79.9342 54.3358 85.0027 42.2545 85.0027C30.1769 85.0027 19.2779 79.9342 11.578 71.8075L11.5746 71.8037L11.5514 71.781C10.9718 71.1706 10.4111 70.5451 9.86979 69.901C9.35881 69.2944 8.86679 68.6688 8.38995 68.0319C3.12351 60.9845 -1.52588e-05 52.2326 -1.52588e-05 42.7482C-1.52588e-05 19.4166 18.9157 0.501324 42.2545 0.501324C65.5861 0.501324 84.5013 19.4166 84.5013 42.7482Z" fill="#ECCCFF"/>
<path d="M72.9423 71.781L72.931 71.8037L72.9272 71.8075L72.9234 71.8113C72.8509 71.8914 72.7709 71.9714 72.6946 72.0477C72.5497 72.2043 72.401 72.3568 72.2485 72.5093C72.1453 72.6121 72.0425 72.7153 71.9393 72.8143C71.7868 72.9668 71.6343 73.1155 71.4818 73.2604C71.3787 73.3636 71.2721 73.4626 71.1655 73.5578C71.0126 73.7065 70.8563 73.8515 70.7 73.9926C68.2176 76.258 65.4601 78.2295 62.4895 79.8504C56.4791 83.1378 49.5842 85.0027 42.2545 85.0027C36.3625 85.0027 30.7489 83.7975 25.6502 81.6121C21.2721 79.7434 17.2757 77.1502 13.8051 73.9888C13.6488 73.8477 13.4925 73.7065 13.34 73.554C13.2331 73.4588 13.1265 73.3598 13.0237 73.2604C12.867 73.1117 12.7145 72.963 12.5658 72.8143C12.463 72.7153 12.3598 72.6121 12.257 72.5093C12.1083 72.3568 11.9558 72.2043 11.8109 72.0477C11.7309 71.9676 11.6546 71.8876 11.578 71.8075L11.5746 71.8037L11.5628 71.781L15.8187 65.7517C16.8751 64.2567 18.3929 63.1585 20.1398 62.6244L20.1853 62.6092C22.4011 61.9457 25.7458 61 29.3799 60.1647C33.7196 59.1731 38.4792 58.3419 42.2431 58.3381H42.2624C46.0263 58.3419 50.7856 59.1731 55.1215 60.1647C58.756 61 62.0965 61.9457 64.316 62.6092L64.3657 62.6244C65.3497 62.9256 66.2571 63.4024 67.0541 64.0317C67.226 64.1691 67.3937 64.3102 67.5537 64.4589C67.9733 64.8439 68.3507 65.2786 68.6865 65.7517L72.9423 71.781Z" fill="#4974C2"/>
<path d="M42.2525 82.1083L37.0749 72.754H47.4268L42.2525 82.1083Z" fill="#303378"/>
<path d="M56.0353 60.5057C56.0353 68.1055 49.8505 74.2903 42.2507 74.2903C34.6509 74.2903 28.4664 68.1055 28.4664 60.5057V60.4928C28.4668 59.7542 29.0009 59.1192 29.7224 58.9621C34.0143 58.0267 38.5722 57.2847 42.2427 57.2813H42.2632C45.933 57.2847 50.4908 58.0263 54.7793 58.9618C55.5008 59.1192 56.0345 59.7538 56.0353 60.4924V60.5057Z" fill="#303378"/>
<path d="M52.5093 61.3335V47.561H31.9924V61.3354L31.9917 61.3604C31.9917 67.0263 36.5848 71.6194 42.2507 71.6194C47.9169 71.6194 52.51 67.0263 52.51 61.3604L52.5093 61.3335Z" fill="#F6859D"/>
<path d="M51.0029 47.561H31.9924V51.2945C34.3261 55.4855 37.5335 57.3082 41.2363 57.9148C42.7734 58.1674 44.8788 58.2767 46.854 58.3169C49.1612 58.3636 51.0029 60.2557 51.0029 62.5633C51.0029 65.4695 49.7939 68.093 47.8528 69.9579C50.6558 68.1275 52.5093 64.9585 52.5093 61.3623V58.2809V47.561H51.0029Z" fill="#F3618E"/>
<path d="M32.3904 39.8618C32.3904 43.2929 29.7759 46.0747 26.5507 46.0747C23.3259 46.0747 20.7115 43.2929 20.7115 39.8618C20.7115 36.4306 23.3259 33.6489 26.5507 33.6489C29.7759 33.6489 32.3904 36.4306 32.3904 39.8618Z" fill="#F6859D"/>
<path d="M26.5507 44.1681C24.382 44.1681 22.6181 42.2361 22.6181 39.8618C22.6181 37.4874 24.382 35.5558 26.5507 35.5558C28.7194 35.5558 30.4834 37.4874 30.4834 39.8618C30.4834 42.2361 28.7194 44.1681 26.5507 44.1681Z" fill="#F3618E"/>
<path d="M63.7903 39.8618C63.7903 43.2929 61.1758 46.0747 57.9506 46.0747C54.7258 46.0747 52.1114 43.2929 52.1114 39.8618C52.1114 36.4306 54.7258 33.6489 57.9506 33.6489C61.1758 33.6489 63.7903 36.4306 63.7903 39.8618Z" fill="#F6859D"/>
<path d="M57.9506 44.1681C55.7819 44.1681 54.0179 42.2361 54.0179 39.8618C54.0179 37.4874 55.7819 35.5558 57.9506 35.5558C60.1193 35.5558 61.8833 37.4874 61.8833 39.8618C61.8833 42.2361 60.1193 44.1681 57.9506 44.1681Z" fill="#F3618E"/>
<path d="M48.7625 15.1072C53.8636 15.1072 57.9988 19.2425 57.9988 24.3439V37.9009H57.976C57.789 45.5891 55.2683 48.8613 51.4741 52.244C48.8809 54.5587 45.6925 56.3322 42.245 56.3322C38.7785 56.3322 35.575 54.5435 32.978 52.2094C29.2065 48.8192 26.7009 45.5625 26.5139 37.9009C26.5063 37.5921 26.5025 37.2758 26.5025 36.9552V24.3439C26.5025 19.2425 30.6378 15.1072 35.7392 15.1072H48.7625Z" fill="#F89DAD"/>
<path d="M48.3262 40.7563C48.3262 40.7563 48.3391 40.7312 48.3642 40.6842C48.3911 40.6383 48.4203 40.5655 48.4772 40.4835C48.5838 40.3139 48.7462 40.0753 48.9935 39.8299C49.2378 39.5833 49.5667 39.3303 49.9658 39.141C50.3611 38.9434 50.8269 38.8254 51.2973 38.7867C51.416 38.7833 51.5317 38.7761 51.6527 38.7818C51.7616 38.7837 51.8803 38.7935 51.9998 38.8057C52.232 38.8319 52.4543 38.8861 52.6652 38.9502C53.0859 39.0849 53.4489 39.2867 53.7239 39.4995C54.0031 39.7078 54.1932 39.9278 54.321 40.0795C54.3871 40.1546 54.4284 40.2221 54.4595 40.265C54.4899 40.3086 54.5062 40.3322 54.5062 40.3322C54.5062 40.3322 54.4197 40.2593 54.2687 40.1319C54.1192 40.0052 53.8901 39.8443 53.6037 39.6827C53.3169 39.5211 52.9649 39.372 52.5738 39.273C52.378 39.2237 52.1709 39.1953 51.9627 39.1721C51.8614 39.1638 51.7574 39.1562 51.6421 39.1566C51.5389 39.1532 51.4293 39.163 51.3235 39.1668C51.1103 39.1827 50.8971 39.2097 50.6926 39.2605C50.4885 39.3125 50.2871 39.3671 50.1016 39.4471C49.726 39.5962 49.3994 39.7965 49.1365 39.9945C48.8759 40.1941 48.6662 40.3818 48.5368 40.5271C48.4025 40.6732 48.3262 40.7563 48.3262 40.7563Z" fill="#F3618E"/>
<path d="M36.2677 40.7563C36.2677 40.7563 36.1914 40.6732 36.0575 40.5271C35.9278 40.3818 35.718 40.1941 35.4574 39.9945C35.1945 39.7965 34.8679 39.5962 34.4923 39.4471C34.3068 39.3671 34.1054 39.3125 33.9013 39.2605C33.6968 39.2097 33.4836 39.1827 33.2705 39.1668C33.1646 39.163 33.055 39.1532 32.9518 39.1566C32.8365 39.1562 32.7325 39.1638 32.6313 39.1721C32.423 39.1953 32.2159 39.2237 32.0205 39.273C31.629 39.372 31.277 39.5211 30.9902 39.6827C30.7038 39.8443 30.4747 40.0052 30.3252 40.1319C30.1742 40.2593 30.0877 40.3322 30.0877 40.3322C30.0877 40.3322 30.1041 40.3086 30.1344 40.265C30.1655 40.2221 30.2069 40.1546 30.2729 40.0795C30.4007 39.9278 30.5908 39.7078 30.87 39.4995C31.1454 39.2867 31.508 39.0849 31.9287 38.9502C32.1396 38.8861 32.3619 38.8319 32.5941 38.8057C32.7136 38.7935 32.8323 38.7837 32.9412 38.7818C33.0622 38.7761 33.1779 38.7833 33.2966 38.7867C33.767 38.8254 34.2329 38.9434 34.6281 39.141C35.0272 39.3303 35.3561 39.5833 35.6004 39.8299C35.8477 40.0753 36.0101 40.3139 36.1167 40.4835C36.174 40.5655 36.2028 40.6383 36.2297 40.6842C36.2544 40.7312 36.2677 40.7563 36.2677 40.7563Z" fill="#F3618E"/>
<path d="M59.8515 34.0229C59.8989 32.9493 59.7844 31.8686 59.9012 30.8034C60.0298 29.6282 60.3743 28.4427 60.8492 27.3688C61.8795 25.0393 61.315 21.8933 60.4498 19.5983C59.5553 17.227 58.0345 15.0924 56.0604 13.5242C55.3832 12.9859 54.6279 12.5546 53.7926 12.3251C53.3757 12.2106 52.2282 11.8699 51.8291 12.1123C52.7673 11.5418 53.4197 10.5138 53.5434 9.41214C53.5002 9.79831 50.4476 9.28582 50.1452 9.21602C49.0023 8.95275 47.8942 8.55748 46.7755 8.20735C45.2653 7.7343 43.8716 7.10231 42.2829 6.9077C39.2633 6.5386 36.0518 7.39099 33.5296 9.11094C32.4295 9.86129 31.4613 10.8373 30.7838 11.9974C30.4587 12.5535 30.109 13.2219 30.0449 13.8698C30.0274 14.0451 29.9322 15.3531 30.2213 15.3462C28.6022 15.3842 27.1008 15.754 25.8247 16.8264C24.6043 17.8518 23.7861 19.3555 23.582 20.9484C23.3195 22.995 24.0251 24.9877 24.4594 26.9568C24.8585 28.7671 24.802 30.6733 24.7462 32.5256C24.742 32.6683 26.5162 32.2388 26.6274 32.2388V28.5683C26.6274 22.7218 31.3043 17.9827 37.0738 17.9827H47.4367C50.6141 17.9827 53.6701 19.486 55.6393 22.0125C56.9268 23.6641 57.6028 25.6781 57.8216 27.755C57.9207 28.6931 57.8732 29.6381 57.808 30.5766C57.7784 31.0014 57.7242 31.4274 57.6938 31.8496C57.6661 32.2339 57.8421 32.6679 57.8873 33.0563C57.9684 33.7532 57.9931 34.4527 58.0246 35.153C58.0496 35.7034 58.5109 35.9253 58.9123 36.2405C59.0473 36.3464 59.7745 36.7883 59.7643 36.9844C59.7829 35.9871 59.8083 35.0043 59.8515 34.0229Z" fill="#501F5F"/>
<path d="M25.4461 39.8618H26.6285V31.526H24.7462V39.1619C24.7462 39.5484 25.0595 39.8618 25.4461 39.8618Z" fill="#501F5F"/>
<path d="M59.0648 39.8618H57.882V31.526H59.7643V39.1619C59.7643 39.5484 59.4513 39.8618 59.0648 39.8618Z" fill="#501F5F"/>
<path d="M26.3147 35.5877C26.4194 35.7933 26.5374 35.9879 26.6345 36.154C26.5458 36.0027 26.8625 35.244 26.9134 35.0665C27.0158 34.7072 27.1307 34.351 27.2248 33.9895C27.4668 33.062 27.7927 31.9759 28.5863 31.3792C29.1784 30.9343 29.7725 30.4957 30.3552 30.039C30.8878 29.6217 31.4549 29.1904 31.7291 28.5474C32.0413 27.8149 32.08 26.9891 32.2052 26.2107C32.1897 26.3059 33.1312 26.9447 33.2556 27.0422C33.6414 27.3449 34.0352 27.637 34.4544 27.8912C35.2825 28.3938 36.1686 28.8058 37.0768 29.1369C39.0824 29.8713 41.4252 30.2833 43.5454 29.8634C44.7467 29.6255 45.8836 29.107 46.9443 28.5C48.4105 27.6617 49.5978 26.6564 51.3591 26.5411C52.8139 26.4459 55.1059 26.8442 55.5827 28.4867C56.0216 29.9992 55.3468 31.814 56.3084 33.1796C56.5026 33.4554 56.7576 33.6807 56.9764 33.9364C57.7196 34.8036 58.0174 35.9833 58.0693 37.1305C58.0439 36.5979 58.6611 35.8532 58.833 35.3479C59.0883 34.5957 59.1971 33.7221 59.3143 32.9372C59.5761 31.1843 59.6554 29.4029 59.548 27.6332C59.4892 26.6636 59.2423 25.9015 58.9354 25.0024C58.6706 24.2278 58.6937 23.3663 58.4301 22.5625C57.9449 21.0846 57.0493 19.7808 55.898 18.7543C52.3951 15.6311 47.189 15.0689 42.726 15.0689C25.3732 15.0689 25.2564 26.3814 25.2564 26.3814C25.454 27.6924 25.6517 29.0034 25.8493 30.3148C25.8493 30.8326 26.0511 31.3902 26.1224 31.9043C26.2009 32.4729 26.1983 33.0131 26.1258 33.5817C26.0788 33.9497 25.9623 34.334 26.0481 34.7023C26.0481 34.988 26.1683 35.299 26.3147 35.5877Z" fill="#501F5F"/>
<path d="M44.0875 42.9914L43.449 43.777C42.7871 44.5907 41.7143 44.5907 41.0527 43.777L40.4143 42.9914C40.2295 42.7645 40.3604 42.3764 40.6214 42.3764H43.8803C44.1413 42.3764 44.2722 42.7645 44.0875 42.9914Z" fill="#F46D82"/>
<path d="M50.5295 37.1305C50.5295 38.5094 49.7469 39.6273 48.7814 39.6273C47.816 39.6273 47.0338 38.5094 47.0338 37.1305C47.0338 35.7516 47.816 34.634 48.7814 34.634C49.7469 34.634 50.5295 35.7516 50.5295 37.1305Z" fill="#501F5F"/>
<path d="M48.7815 38.8645C48.3164 38.8645 47.7963 38.1229 47.7963 37.1309C47.7963 36.1381 48.3164 35.3969 48.7815 35.3969C49.2469 35.3969 49.7666 36.1381 49.7666 37.1309C49.7666 38.1229 49.2469 38.8645 48.7815 38.8645Z" fill="#3A1A45"/>
<path d="M33.979 37.1305C33.979 38.5094 34.7616 39.6273 35.7267 39.6273C36.6921 39.6273 37.4747 38.5094 37.4747 37.1305C37.4747 35.7516 36.6921 34.634 35.7267 34.634C34.7616 34.634 33.979 35.7516 33.979 37.1305Z" fill="#501F5F"/>
<path d="M35.7267 38.8645C35.2616 38.8645 34.7419 38.1229 34.7419 37.1309C34.7419 36.1381 35.2616 35.3969 35.7267 35.3969C36.1922 35.3969 36.7119 36.1381 36.7119 37.1309C36.7119 38.1229 36.1922 38.8645 35.7267 38.8645Z" fill="#3A1A45"/>
<path d="M37.0772 31.5348C36.0321 31.4111 34.9544 31.5014 33.9574 31.7814C33.4552 31.9221 32.9681 32.1156 32.4879 32.3177C32.063 32.4972 31.156 33.0135 31.156 33.5958C31.156 33.903 31.9287 33.3697 32.1157 33.2915C32.9256 32.9516 33.7761 32.6838 34.6528 32.5943C35.5788 32.4994 36.4084 32.6641 37.2718 32.9892C37.7676 33.1762 38.238 33.5066 38.7527 33.6284C39.0426 33.6986 39.4337 33.6284 39.6419 33.4019C39.7827 33.249 39.7823 33.0503 39.7633 32.8526C39.7394 32.6015 39.6267 32.3633 39.4788 32.1614C39.417 32.0776 39.3491 31.9983 39.2793 31.9209C39.2736 32.0135 39.2796 32.1072 39.2971 32.1983C39.28 32.108 39.104 32.081 39.0376 32.0522C38.4182 31.7855 37.7543 31.6152 37.0772 31.5348Z" fill="#501F5F"/>
<path d="M47.1685 31.5348C48.2136 31.4111 49.2913 31.5014 50.2886 31.7814C50.7904 31.9221 51.2779 32.1156 51.7578 32.3177C52.1826 32.4972 53.0897 33.0135 53.0897 33.5958C53.0897 33.903 52.3169 33.3697 52.1299 33.2915C51.32 32.9516 50.4695 32.6838 49.5929 32.5943C48.6669 32.4994 47.8376 32.6641 46.9739 32.9892C46.4784 33.1762 46.0077 33.5066 45.4929 33.6284C45.2031 33.6986 44.812 33.6284 44.6037 33.4019C44.4634 33.249 44.4634 33.0503 44.4823 32.8526C44.5062 32.6015 44.6189 32.3633 44.7668 32.1614C44.8287 32.0776 44.897 31.9983 44.9664 31.9209C44.9721 32.0135 44.966 32.1072 44.9485 32.1983C44.966 32.108 45.142 32.081 45.208 32.0522C45.8275 31.7855 46.4913 31.6152 47.1685 31.5348Z" fill="#501F5F"/>
<path d="M41.8797 49.0123C38.8472 49.0123 36.798 47.6209 36.7661 47.5993C36.5939 47.4787 36.5514 47.2416 36.6716 47.069C36.7911 46.8964 37.0282 46.8527 37.202 46.973C37.3878 47.1016 41.8091 50.0783 47.3123 46.572C47.4894 46.459 47.725 46.5109 47.8392 46.6889C47.9519 46.8664 47.8999 47.1023 47.722 47.2154C45.5878 48.5753 43.5791 49.0123 41.8797 49.0123Z" fill="#F3618E"/>
<path d="M72.9423 71.781L72.931 71.8037L72.9272 71.8075L72.9234 71.8113C72.8509 71.8914 72.7709 71.9714 72.6946 72.0477C72.5497 72.2043 72.401 72.3568 72.2485 72.5093C72.1453 72.6121 72.0425 72.7153 71.9394 72.8143C71.7869 72.9668 71.6344 73.1155 71.4819 73.2604C71.3787 73.3636 71.2721 73.4626 71.1655 73.5578C71.0126 73.7065 70.8563 73.8515 70.7 73.9926C68.2176 76.258 65.4602 78.2295 62.4895 79.8504C62.7107 70.6445 63.3362 63.9399 64.3657 62.6244C65.3498 62.9256 66.2572 63.4024 67.0542 64.0317C67.226 64.1691 67.3937 64.3102 67.5538 64.4589C67.9733 64.8439 68.3508 65.2786 68.6865 65.7517L72.9423 71.781Z" fill="#303378"/>
<path d="M11.5628 71.781L11.5746 71.8037L11.5784 71.8075L11.5822 71.8113C11.6546 71.8914 11.7346 71.9714 11.8109 72.0477C11.9558 72.2043 12.1045 72.3568 12.257 72.5093C12.3602 72.6121 12.463 72.7153 12.5658 72.8143C12.7183 72.9668 12.8712 73.1155 13.0237 73.2604C13.1265 73.3636 13.2334 73.4626 13.34 73.5578C13.4925 73.7065 13.6488 73.8515 13.8055 73.9926C16.2879 76.258 19.045 78.2295 22.016 79.8504C21.7949 70.6445 21.1693 63.9399 20.1398 62.6244C19.1558 62.9256 18.248 63.4024 17.451 64.0317C17.2795 64.1691 17.1119 64.3102 16.9514 64.4589C16.5322 64.8439 16.1544 65.2786 15.8191 65.7517L11.5628 71.781Z" fill="#303378"/>
</svg>
