<svg width="85" height="86" viewBox="0 0 85 86" fill="none" xmlns="http://www.w3.org/2000/svg">
<path d="M84.5 42.7473C84.5 52.2316 81.3769 60.9836 76.1105 68.031C75.6337 68.6679 75.1379 69.293 74.6232 69.8997C74.3371 70.2467 74.0435 70.5859 73.742 70.9216C73.4753 71.219 73.2044 71.5126 72.9298 71.8025C65.2304 79.9328 54.335 85.0011 42.2538 85.0011C30.1764 85.0011 19.2776 79.9328 11.5778 71.8062L11.574 71.8025L11.5513 71.7797C10.9716 71.1693 10.411 70.5441 9.86964 69.8997C9.35867 69.293 8.86666 68.6679 8.38983 68.031C3.12347 60.9836 0 52.2316 0 42.7473C0 19.4161 18.9154 0.501122 42.2538 0.501122C65.585 0.501122 84.5 19.4161 84.5 42.7473Z" fill="#FFFDCC"/>
<path d="M64.1265 56.6786C63.4584 58.0695 62.4524 59.28 61.3808 60.3995C60.8213 60.9852 60.2356 61.5538 59.5505 61.9803C59.0907 62.2685 58.5874 62.4927 58.1928 62.8587C57.3295 63.6553 57.169 65.0248 57.5943 66.1188C57.7892 66.6184 58.0931 67.0793 58.2623 67.5919C58.4314 68.1042 58.4443 68.7158 58.0972 69.1292C57.7763 69.5165 57.2384 69.6376 56.7354 69.7103C55.5337 69.8913 54.3107 69.9603 53.0961 69.9042H31.4039C30.1897 69.9603 28.9663 69.8913 27.7649 69.7103C27.2661 69.6376 26.7236 69.5165 26.4027 69.1292C26.0602 68.7158 26.0731 68.1042 26.2423 67.5919C26.4115 67.0793 26.7108 66.6184 26.9061 66.1188C27.331 65.0248 27.1705 63.6553 26.3075 62.8587C25.9126 62.4927 25.4096 62.2685 24.954 61.9803C24.2644 61.5538 23.6787 60.9852 23.1192 60.3995C22.0479 59.28 21.0415 58.0695 20.3735 56.6786C19.7013 55.2833 19.3846 53.681 19.7275 52.1739C20.3087 49.5986 22.703 47.5832 22.7808 44.9471C22.8199 43.7716 22.3817 42.6605 22.0783 41.5452C21.7486 40.3177 21.3712 39.0902 21.2369 37.8197C21.0806 36.3813 21.0503 34.9216 21.1242 33.4744C21.1891 32.2169 21.2544 30.8775 21.8052 29.719C21.9353 29.4436 22.087 29.241 22.2604 29.0904C22.6424 28.7585 23.1366 28.6811 23.7788 28.664C24.7025 28.6337 25.6308 28.6079 26.559 28.5779C28.9966 28.5047 31.4343 28.4315 33.8723 28.3583C36.1495 28.2851 38.4266 28.216 40.6996 28.147C40.7471 28.147 40.7948 28.1428 40.8426 28.1428C41.3153 28.1299 41.7838 28.1125 42.2523 28.0996C42.7208 28.1125 43.1892 28.1299 43.6577 28.1428C43.7055 28.1428 43.7529 28.147 43.8007 28.147C46.0737 28.216 48.3509 28.2851 50.6281 28.3583C53.0657 28.4315 55.5033 28.5047 57.9413 28.5779C58.8696 28.6079 59.7978 28.6337 60.7261 28.664C61.3634 28.6811 61.858 28.7585 62.2396 29.0904C62.4134 29.241 62.5651 29.4436 62.6952 29.719C63.246 30.8775 63.3109 32.2169 63.3761 33.4744C63.4543 34.9216 63.4194 36.3813 63.2676 37.8197C63.1288 39.0902 62.7517 40.3177 62.4217 41.5452C62.1182 42.6605 61.6847 43.7716 61.7192 44.9471C61.7973 47.5832 64.1917 49.5986 64.7729 52.1739C65.1154 53.681 64.7986 55.2833 64.1265 56.6786Z" fill="#B22C27"/>
<path d="M70.7004 73.9825V73.9862L70.689 73.9939C68.2044 76.2585 65.4504 78.2272 62.4801 79.8471C61.5242 80.3668 60.5455 80.8561 59.5479 81.2999C54.2675 83.6822 48.4067 85.0023 42.2462 85.0023C36.3513 85.0023 30.7409 83.796 25.6388 81.6148C25.5781 81.5882 25.5212 81.5617 25.4605 81.535C25.2822 81.4593 25.1077 81.3833 24.9332 81.2999C24.3945 81.0571 23.8597 80.8067 23.3362 80.5412C19.8538 78.8001 16.6484 76.581 13.7996 73.9862L16.2198 69.1725C17.1795 67.2682 18.5337 65.5991 20.1915 64.279C20.6998 63.877 21.2346 63.5052 21.796 63.1713C21.9023 63.1069 22.0123 63.0423 22.1223 62.9817C23.6396 62.0902 25.3467 61.2216 26.8071 60.7815L26.8261 60.7777C27.0992 60.7093 27.3761 60.6412 27.6568 60.5729L27.6682 60.569L27.691 60.5653C28.0248 60.4817 28.3624 60.4021 28.7038 60.3224H28.7076C28.9238 60.2694 29.1476 60.2163 29.3677 60.167C33.7111 59.1769 38.4718 58.3423 42.2348 58.3348H42.2538C46.0168 58.3423 50.7775 59.1769 55.1134 60.167C55.341 60.2201 55.5686 60.2732 55.7924 60.3224L55.8493 60.3414C56.149 60.406 56.4449 60.4817 56.7369 60.5501L56.7559 60.5539C57.0859 60.6373 57.4122 60.7132 57.7308 60.7966L57.7612 60.8042C59.3165 61.2822 61.1373 62.2381 62.7115 63.175C65.1052 64.5976 67.0322 66.6878 68.284 69.1725L70.7004 73.9825Z" fill="#F35F42"/>
<path d="M45.598 84.8809C44.4744 84.9609 43.3448 85.0011 42.2014 85.0011C41.0513 85.0011 39.9148 84.9609 38.7847 84.8809L40.436 73.8687H43.9062L45.598 84.8809Z" fill="#731C18"/>
<path d="M44.3792 73.6275H40.2205C39.8711 73.6275 39.5737 73.3804 39.5203 73.0459L38.8928 69.144C38.8257 68.7272 39.1584 68.3508 39.5935 68.3508H45.0062C45.4413 68.3508 45.774 68.7272 45.7069 69.144L45.0795 73.0459C45.026 73.3804 44.7286 73.6275 44.3792 73.6275Z" fill="#731C18"/>
<path d="M43.8375 73.1494H40.5665C40.2877 73.1494 40.0616 73.3907 40.0616 73.6881V74.0482C40.0616 74.3456 40.2877 74.5868 40.5665 74.5868H43.8375C44.1163 74.5868 44.3428 74.3456 44.3428 74.0482V73.6881C44.3428 73.3907 44.1163 73.1494 43.8375 73.1494Z" fill="#621915"/>
<path d="M28.7038 60.3224C28.4535 60.406 28.1158 60.4856 27.691 60.5653C28.0248 60.4817 28.3624 60.4021 28.7038 60.3224Z" fill="#B0E5F9"/>
<path d="M56.737 60.5501C56.3728 60.4817 56.0807 60.4136 55.8493 60.3414C56.149 60.406 56.4449 60.4817 56.737 60.5501Z" fill="#B0E5F9"/>
<path d="M50.5204 59.8623V46.0897H33.963V59.8638L33.9626 59.8889C33.9626 65.5546 37.6691 70.1477 42.2417 70.1477C46.8142 70.1477 50.5207 65.5546 50.5207 59.8889L50.5204 59.8623Z" fill="#F6859D"/>
<path d="M49.3046 47.5604H33.963V52.6838C36.4454 56.6202 38.4346 57.3079 41.423 57.9141C42.6631 58.1668 44.3622 58.276 45.9561 58.3161C47.8183 58.3632 49.3046 60.255 49.3046 62.5629C49.3046 65.4686 48.3289 68.0925 46.7626 69.9574C49.0246 68.1266 50.5204 64.9576 50.5204 61.3615V58.2801V47.5604H49.3046Z" fill="#F3618E"/>
<path d="M50.5207 59.1161L42.2436 70.1409C42.2436 70.1409 49.1612 71.1817 51.3811 78.0122C51.3811 78.0122 52.1944 63.0113 56.8136 60.5682L54.368 55.6152C54.269 55.3535 54.0546 55.1422 53.7774 55.0323L50.5207 53.744V59.1161Z" fill="#F04825"/>
<path d="M50.5207 59.1161V54.64L52.8411 55.6301C53.1499 55.7616 53.2387 56.1259 53.0209 56.3656L50.5207 59.1161Z" fill="#984A3C"/>
<path d="M33.963 59.1161L42.2401 70.1409C42.2401 70.1409 35.3225 71.1817 33.103 78.0122C33.103 78.0122 32.2893 63.0113 27.6701 60.5682L30.1157 55.6152C30.2147 55.3535 30.429 55.1422 30.7063 55.0323L33.963 53.744V59.1161Z" fill="#F04825"/>
<path d="M33.963 59.1161L31.4631 56.3656C31.245 56.1259 31.3338 55.7616 31.6425 55.6301L33.963 54.64V59.1161Z" fill="#984A3C"/>
<path d="M32.8784 39.861C32.8784 43.2925 30.3934 46.0738 27.3283 46.0738C24.2629 46.0738 21.7782 43.2925 21.7782 39.861C21.7782 36.4298 24.2629 33.6482 27.3283 33.6482C30.3934 33.6482 32.8784 36.4298 32.8784 39.861Z" fill="#F6859D"/>
<path d="M27.3283 44.1672C25.267 44.1672 23.5903 42.2352 23.5903 39.8609C23.5903 37.4867 25.267 35.5551 27.3283 35.5551C29.3893 35.5551 31.066 37.4867 31.066 39.8609C31.066 42.2352 29.3893 44.1672 27.3283 44.1672Z" fill="#F3618E"/>
<path d="M62.7221 39.861C62.7221 43.2925 60.2371 46.0738 57.172 46.0738C54.1066 46.0738 51.6219 43.2925 51.6219 39.861C51.6219 36.4298 54.1066 33.6482 57.172 33.6482C60.2371 33.6482 62.7221 36.4298 62.7221 39.861Z" fill="#F6859D"/>
<path d="M57.1717 44.1672C55.1107 44.1672 53.4341 42.2352 53.4341 39.8609C53.4341 37.4867 55.1107 35.5551 57.1717 35.5551C59.233 35.5551 60.9097 37.4867 60.9097 39.8609C60.9097 42.2352 59.233 44.1672 57.1717 44.1672Z" fill="#F3618E"/>
<path d="M48.4283 15.1068C53.2687 15.1068 57.1922 19.2424 57.1922 24.3433V37.9005H57.1705C56.993 45.5886 54.6013 48.8604 51.001 52.2429C49.6278 53.535 47.0596 55.567 45.0582 56.3075C43.2348 56.982 41.252 56.9801 39.4292 56.3041C37.4168 55.5573 34.8301 53.5137 33.452 52.2084C29.8737 48.8183 27.4964 45.5616 27.3188 37.9005C27.3116 37.5914 27.3082 37.275 27.3082 36.9544V24.3433C27.3082 19.2424 31.2317 15.1068 36.0717 15.1068H48.4283Z" fill="#F89DAD"/>
<path d="M28.1655 44.1672L27.477 31.5257L25.3941 27.8272L26.3333 40.623C26.9311 44.0071 28.1655 44.1672 28.1655 44.1672Z" fill="#B22C27"/>
<path d="M56.3018 44.1672L56.9903 31.5257L58.9841 28.0275L58.134 40.623C57.5362 44.0071 56.3018 44.1672 56.3018 44.1672Z" fill="#B22C27"/>
<path d="M44.0868 42.9909L43.4483 43.7761C42.7864 44.5898 41.7136 44.5898 41.0521 43.7761L40.4136 42.9909C40.2289 42.7637 40.3598 42.3756 40.6207 42.3756H43.8797C44.1406 42.3756 44.2715 42.7637 44.0868 42.9909Z" fill="#F46D82"/>
<path d="M50.5287 37.1297C50.5287 38.5086 49.7461 39.6265 48.7807 39.6265C47.8153 39.6265 47.0331 38.5086 47.0331 37.1297C47.0331 35.7512 47.8153 34.6333 48.7807 34.6333C49.7461 34.6333 50.5287 35.7512 50.5287 37.1297Z" fill="#B22C27"/>
<path d="M48.7807 38.8637C48.3156 38.8637 47.7956 38.1221 47.7956 37.1301C47.7956 36.1378 48.3156 35.3962 48.7807 35.3962C49.2461 35.3962 49.7658 36.1378 49.7658 37.1301C49.7658 38.1221 49.2461 38.8637 48.7807 38.8637Z" fill="#7E181A"/>
<path d="M33.9785 37.1297C33.9785 38.5086 34.7611 39.6265 35.7261 39.6265C36.6916 39.6265 37.4741 38.5086 37.4741 37.1297C37.4741 35.7512 36.6916 34.6333 35.7261 34.6333C34.7611 34.6333 33.9785 35.7512 33.9785 37.1297Z" fill="#B22C27"/>
<path d="M35.7262 38.8637C35.2611 38.8637 34.7414 38.1221 34.7414 37.1301C34.7414 36.1378 35.2611 35.3962 35.7262 35.3962C36.1916 35.3962 36.7113 36.1378 36.7113 37.1301C36.7113 38.1221 36.1916 38.8637 35.7262 38.8637Z" fill="#7E181A"/>
<path d="M37.0766 31.5345C36.0315 31.4104 34.9538 31.5007 33.9569 31.7807C33.4547 31.9214 32.9676 32.1149 32.4873 32.3174C32.0625 32.4965 31.1555 33.0128 31.1555 33.5954C31.1555 33.9023 31.9282 33.3693 32.1152 33.2908C32.9251 32.9509 33.7756 32.6831 34.6522 32.5936C35.5782 32.4988 36.4078 32.6634 37.2712 32.9885C37.767 33.1755 38.2374 33.5063 38.7521 33.6277C39.042 33.6978 39.433 33.6277 39.6413 33.4012C39.782 33.2483 39.7816 33.0496 39.7627 32.8523C39.7388 32.6008 39.6261 32.3626 39.4782 32.1611C39.4163 32.0769 39.3485 31.9976 39.2787 31.9203C39.273 32.0132 39.279 32.1065 39.2965 32.1976C39.2794 32.1077 39.1034 32.0803 39.037 32.0519C38.4176 31.7848 37.7537 31.6145 37.0766 31.5345Z" fill="#B22C27"/>
<path d="M47.1677 31.5345C48.2128 31.4104 49.2905 31.5007 50.2878 31.7807C50.7896 31.9214 51.2771 32.1149 51.757 32.3174C52.1818 32.4965 53.0888 33.0128 53.0888 33.5954C53.0888 33.9023 52.3161 33.3693 52.1291 33.2908C51.3192 32.9509 50.4687 32.6831 49.5921 32.5936C48.6661 32.4988 47.8369 32.6634 46.9731 32.9885C46.4777 33.1755 46.0069 33.5063 45.4922 33.6277C45.2024 33.6978 44.8113 33.6277 44.603 33.4012C44.4627 33.2483 44.4627 33.0496 44.4816 32.8523C44.5055 32.6008 44.6182 32.3626 44.7661 32.1611C44.828 32.0769 44.8962 31.9976 44.9657 31.9203C44.9714 32.0132 44.9653 32.1065 44.9478 32.1976C44.9653 32.1077 45.1413 32.0803 45.2073 32.0519C45.8268 31.7848 46.4906 31.6145 47.1677 31.5345Z" fill="#B22C27"/>
<path d="M41.879 49.0114C38.8466 49.0114 36.7974 47.6203 36.7655 47.5983C36.5933 47.4781 36.5508 47.2406 36.6711 47.068C36.7906 46.8954 37.0276 46.8518 37.2014 46.972C37.3873 47.1006 41.8085 50.0773 47.3115 46.5711C47.4887 46.4584 47.7242 46.51 47.8384 46.6879C47.9511 46.8658 47.8991 47.1014 47.7212 47.2148C45.5871 48.5744 43.5784 49.0114 41.879 49.0114Z" fill="#F3618E"/>
<path d="M37.0318 41.4914C36.7246 42.1203 35.3885 42.1184 33.9751 42.1397C32.5621 42.1177 31.2257 42.1199 30.918 41.4914C30.5967 40.8837 31.9168 39.6273 33.9751 39.6265C36.0334 39.6269 37.3527 40.8825 37.0318 41.4914Z" fill="#F3618E"/>
<path d="M53.582 41.4914C53.2747 42.1199 51.9383 42.118 50.5253 42.1397C49.1122 42.1184 47.7758 42.1199 47.4682 41.4914C47.1473 40.8833 48.4666 39.6273 50.5253 39.6265C52.5836 39.6269 53.9033 40.8829 53.582 41.4914Z" fill="#F3618E"/>
<path d="M64.7619 31.4715C63.1353 25.3501 61.8421 29.1333 59.9743 20.7954C59.1811 17.2611 57.6004 13.7207 54.7724 11.711C50.611 8.74117 44.4312 7.90814 42.2481 11.8912C40.1872 8.07732 33.8909 8.74117 29.7239 11.711C26.9016 13.7207 25.3209 17.2611 24.5277 20.7954C22.6598 29.1333 21.3667 25.3501 19.7401 31.4715C18.1074 37.5925 22.5654 43.1127 22.5654 43.1127C22.5654 43.1127 22.9933 35.8741 28.2175 35.5217C29.3078 35.4485 30.5239 35.128 31.2215 34.2183C32.0375 33.1547 32.116 31.5064 32.2753 30.2227C32.4066 29.1636 32.7135 28.1277 32.8212 27.0712C32.7214 28.0981 32.7081 29.1337 32.7757 30.1628C32.8136 30.7386 32.8773 31.313 32.9665 31.8831C33.0435 32.3736 33.2722 32.9426 33.2749 33.4331C33.2684 32.2587 33.3344 31.085 33.4001 29.9124C33.457 28.8947 33.5169 27.8617 33.8484 26.8978C34.2153 25.8308 34.8533 24.7576 35.8627 24.1674C37.044 23.4766 38.6759 23.5672 39.9562 23.8802C40.4713 24.0061 40.9694 24.203 41.4295 24.467C41.4272 24.2903 41.3741 24.1143 41.2785 23.9652C41.5627 24.3195 41.8468 24.6738 42.1309 25.0281C42.3543 24.5786 42.7162 24.1988 43.1544 23.9542C43.0091 24.1454 42.8915 24.357 42.8058 24.5812C42.9423 24.2243 43.7135 23.9401 44.042 23.8461C45.4327 23.4478 47.3377 23.6617 48.3646 24.7785C48.8813 25.3471 49.2401 26.0405 49.5508 26.7434C50.5295 28.9561 51.0932 31.4142 50.7324 33.8067C51.2134 31.6889 51.133 29.4462 50.5022 27.3682C50.6691 27.7271 50.8914 28.0317 50.993 28.4137C51.1277 28.9201 51.2214 29.4383 51.3219 29.9519C51.6163 31.4567 51.2878 33.4733 52.5301 34.6079C53.5297 35.521 55.025 35.4368 56.2841 35.5217C61.503 35.8741 61.9021 43.1127 61.9021 43.1127C61.9021 43.1127 66.3885 37.5925 64.7619 31.4715Z" fill="#B22C27"/>
<path d="M62.1326 78.3357C62.1706 78.7758 62.0682 79.2006 61.8519 79.5535C61.5295 80.1073 60.9491 80.4979 60.2625 80.5548L60.1866 80.5663C59.0562 80.6574 58.0585 79.8265 57.9675 78.6961L57.8385 77.2774C57.8537 77.0649 57.8575 76.8563 57.8651 76.6476C57.9095 75.4383 57.9645 74.2294 58.0354 73.0212C58.0946 72.0058 58.1651 70.9906 58.2509 69.9766C58.3222 69.1364 58.4037 68.297 58.5012 67.4593C58.5805 66.7765 58.67 66.0949 58.7751 65.4155C58.8593 64.8718 58.953 64.3298 59.0619 63.7907C59.1473 63.3686 59.2421 62.9483 59.351 62.5313C59.4344 62.2123 59.5486 61.9013 59.6313 61.5827C59.67 61.4327 59.769 61.3126 59.9313 61.3527C60.3528 61.4571 60.7564 61.6338 61.1327 61.849C61.4013 61.9905 61.6676 62.1361 61.9327 62.2845C62.1452 62.4035 62.3568 62.5246 62.5674 62.6475C62.7544 62.7567 62.9562 62.855 63.1102 63.0101C63.4364 63.3389 63.2631 63.6956 63.1747 64.0832C63.1303 64.2797 63.0886 64.4766 63.0495 64.6743C62.9626 65.1157 62.8872 65.5593 62.8189 66.0038C62.6596 67.0433 62.5378 68.0887 62.4342 69.135C62.3174 70.3127 62.2252 71.4932 62.1486 72.6745C62.0689 73.9005 62.0063 75.1278 61.9582 76.3556L62.1326 78.3357Z" fill="#731C18"/>
<path d="M60.261 80.5548L60.1855 80.5662C59.0562 80.6591 58.0605 79.8255 57.9679 78.6961L57.8405 77.2774C57.8173 78.0881 57.7942 78.9392 57.771 79.8367L57.7187 82.0779C58.3442 81.8348 58.9637 81.5741 59.5718 81.3018C60.3361 80.9604 61.0887 80.5954 61.836 80.2017L61.8417 79.9354C61.8474 79.808 61.8474 79.6806 61.8531 79.553C61.5292 80.1091 60.9499 80.4969 60.261 80.5548Z" fill="#621915"/>
<path d="M61.9574 75.8936C61.9517 76.0324 61.83 76.1425 61.6911 76.1311L60.3767 76.0499L60.4116 75.5692V75.5286C60.4116 75.3087 60.2436 75.1235 60.0118 75.1004C59.7743 75.0829 59.5661 75.2624 59.5486 75.4999L59.508 75.9979L58.246 75.9167C58.1067 75.9054 57.9967 75.7836 58.0081 75.6504L58.2979 71.0468C58.3036 70.908 58.4254 70.798 58.5642 70.8093L62.0098 71.0297C62.1486 71.0354 62.2586 71.1567 62.2468 71.296L61.9574 75.8936ZM62.6698 70.3117L57.9967 70.0218C57.7824 70.0048 57.5973 70.1724 57.5855 70.3868L57.2149 76.2119C57.2035 76.4261 57.3655 76.6117 57.5855 76.6291L62.2529 76.9185C62.4729 76.9356 62.658 76.768 62.6698 76.5537L63.0347 70.7285C63.0518 70.5142 62.8841 70.3287 62.6698 70.3117Z" fill="#F04825"/>
<path d="M26.6607 77.2774L26.5317 78.6961C26.4407 79.8265 25.443 80.6574 24.3164 80.5663L24.2405 80.5548C23.5501 80.4979 22.9697 80.1073 22.6473 79.5535C22.4311 79.2006 22.3286 78.7758 22.3704 78.3357L22.5411 76.3556C22.4929 75.1281 22.4303 73.9005 22.3507 72.6745C22.274 71.4937 22.1815 70.3131 22.0646 69.1353C21.9611 68.0887 21.8393 67.0433 21.6796 66.0038C21.5525 65.1772 21.3955 64.358 21.194 63.5468C21.1682 63.4432 21.1516 63.3496 21.194 63.2472C21.2122 63.2032 21.2388 63.1631 21.2661 63.1242C21.356 62.9968 21.4732 62.9233 21.6041 62.8436C21.7103 62.7791 21.8241 62.7146 21.9379 62.65C22.356 62.4039 22.7782 62.1657 23.2061 61.9373C23.4386 61.813 23.6726 61.6915 23.9086 61.5735C24.1343 61.4609 24.3156 61.3464 24.5747 61.3819C24.6172 61.388 24.6601 61.3938 24.6999 61.4093C24.7818 61.4407 24.8353 61.5068 24.8687 61.5842C24.9973 61.8809 25.0675 62.2208 25.149 62.5328C25.2583 62.9498 25.3531 63.3701 25.4385 63.7923C25.5477 64.3313 25.6418 64.8738 25.726 65.417C25.8315 66.0964 25.9214 66.778 26.001 67.4608C26.0985 68.2985 26.1804 69.1376 26.2518 69.9778C26.3379 70.9914 26.4081 72.0065 26.4676 73.022C26.5385 74.2298 26.5939 75.4388 26.6379 76.6476C26.6417 76.8563 26.6493 77.0649 26.6607 77.2774Z" fill="#731C18"/>
<path d="M22.6469 79.553C22.6526 79.6806 22.6526 79.808 22.6587 79.9354L22.6644 80.2017C23.4113 80.5954 24.1643 80.9604 24.9286 81.3018C25.5363 81.5741 26.1562 81.8348 26.7813 82.0779L26.7294 79.8367C26.7062 78.9392 26.6831 78.0881 26.6599 77.2774L26.5325 78.6961C26.4399 79.8255 25.4438 80.6591 24.3149 80.5662L24.2394 80.5548C23.5505 80.4969 22.9712 80.1091 22.6469 79.553Z" fill="#621915"/>
<path d="M22.2532 71.296C22.2418 71.1567 22.3518 71.0354 22.4906 71.0297L25.9362 70.8093C26.075 70.798 26.1968 70.908 26.2025 71.0468L26.4919 75.6504C26.5037 75.7836 26.3933 75.9054 26.2544 75.9167L24.992 75.9979L24.9514 75.4999C24.9343 75.2624 24.7257 75.0829 24.4882 75.1004C24.2568 75.1235 24.0888 75.3087 24.0888 75.5286V75.5692L24.1237 76.0499L22.8093 76.1311C22.6701 76.1425 22.5487 76.0324 22.543 75.8936L22.2532 71.296ZM21.4657 70.7285L21.8306 76.5537C21.8424 76.768 22.0275 76.9356 22.2475 76.9185L26.9145 76.6291C27.1345 76.6117 27.2969 76.4261 27.2851 76.2119L26.9145 70.3868C26.9031 70.1724 26.7176 70.0048 26.5037 70.0218L21.8306 70.3117C21.6163 70.3287 21.4482 70.5142 21.4657 70.7285Z" fill="#F04825"/>
</svg>
