<svg width="85" height="85" viewBox="0 0 85 85" fill="none" xmlns="http://www.w3.org/2000/svg">
<path d="M84.5013 42.2468C84.5013 51.7312 81.3778 60.4831 76.1114 67.5305C75.6345 68.1675 75.1387 68.793 74.624 69.3996C74.3379 69.7463 74.0443 70.0858 73.7431 70.4215C73.4761 70.7189 73.2052 71.0125 72.9309 71.3024C65.231 79.4329 54.3359 84.5013 42.2545 84.5013C30.1769 84.5013 19.2777 79.4329 11.578 71.3062L11.5742 71.3024L11.5513 71.2796C10.9717 70.6692 10.4111 70.0437 9.86962 69.3996C9.35853 68.793 8.86659 68.1675 8.38987 67.5305C3.1232 60.4831 -1.52588e-05 51.7312 -1.52588e-05 42.2468C-1.52588e-05 18.9153 18.9154 1.09606e-05 42.2545 1.09606e-05C65.5857 1.09606e-05 84.5013 18.9153 84.5013 42.2468Z" fill="#FFFDCC"/>
<path d="M72.9408 71.2807L72.9291 71.3039L72.9234 71.3096C72.8483 71.3907 72.7728 71.4719 72.6916 71.547C72.5471 71.7033 72.4022 71.8539 72.2459 72.0102C72.1476 72.1088 72.0433 72.2128 71.939 72.3114C71.7884 72.4677 71.6321 72.6126 71.4815 72.7571C71.3775 72.8615 71.2732 72.9601 71.1632 73.0583C71.0126 73.2033 70.8559 73.3478 70.6997 73.4927C68.2157 75.757 65.4594 77.7258 62.4887 79.3471C61.5335 79.8683 60.5548 80.3547 59.5587 80.8004C54.2778 83.1804 48.4177 84.5005 42.2564 84.5005C36.3614 84.5005 30.7505 83.2961 25.6489 81.113C25.4115 81.009 25.1741 80.9104 24.9425 80.8004C20.8428 78.9591 17.0904 76.4747 13.8071 73.487C13.6508 73.3478 13.4945 73.2033 13.3381 73.0527C13.2338 72.9601 13.1238 72.8558 13.0254 72.7571C12.8691 72.6126 12.7126 72.462 12.568 72.3114C12.4637 72.2128 12.3594 72.1088 12.2552 72.0102C12.1104 71.8539 11.9541 71.7033 11.8093 71.547C11.7284 71.4659 11.653 71.3851 11.5777 71.3039H11.5719L11.5604 71.2807L15.8165 65.2526C16.8761 63.753 18.3933 62.6586 20.142 62.1256L20.1824 62.1086C20.9818 61.865 21.9371 61.5873 22.9967 61.2975C24.8613 60.7706 27.0617 60.1974 29.378 59.6648C33.7211 58.6747 38.4808 57.8406 42.2446 57.8349H42.2621C46.0259 57.8406 50.786 58.6747 55.123 59.6648C57.445 60.1974 59.6456 60.7767 61.51 61.2975C62.5699 61.593 63.5137 61.865 64.3187 62.1086L64.365 62.1256C65.3494 62.4268 66.2583 62.9018 67.0519 63.533C67.2256 63.6662 67.3933 63.8107 67.5556 63.9556C67.9725 64.3437 68.3489 64.7776 68.6846 65.2526L72.9408 71.2807Z" fill="#7B1F19"/>
<path d="M42.2526 81.1904C40.3411 81.1904 38.6135 80.2113 37.6307 78.5721L30.5874 66.8234H53.911L46.8741 78.571C45.892 80.2109 44.1645 81.1904 42.2526 81.1904Z" fill="#621915"/>
<path d="M40.1142 77.0839L35.6991 69.7186H48.802L44.3906 77.0832C43.4229 78.6984 41.0823 78.6988 40.1142 77.0839Z" fill="#D9DCCC"/>
<path d="M52.5089 60.832V47.0596H31.9921V60.8339L31.9913 60.859C31.9913 66.5249 36.5848 71.118 42.2507 71.118C47.9166 71.118 52.5097 66.5249 52.5097 60.859L52.5089 60.832Z" fill="#F6859D"/>
<path d="M51.0026 47.0596H31.9921V50.7931C34.3258 54.9841 37.5332 56.8068 41.2363 57.4134C42.7731 57.6661 44.8784 57.7753 46.8537 57.8155C49.1608 57.8622 51.0026 59.7544 51.0026 62.0619C51.0026 64.9681 49.794 67.5916 47.8529 69.4565C50.6558 67.6261 52.5089 64.4571 52.5089 60.8609V57.7795V47.0596H51.0026Z" fill="#F3618E"/>
<path d="M32.3904 39.3604C32.3904 42.7916 29.7756 45.5733 26.5507 45.5733C23.3255 45.5733 20.7112 42.7916 20.7112 39.3604C20.7112 35.9293 23.3255 33.1475 26.5507 33.1475C29.7756 33.1475 32.3904 35.9293 32.3904 39.3604Z" fill="#F6859D"/>
<path d="M26.5505 43.6667C24.3819 43.6667 22.6178 41.7347 22.6178 39.3604C22.6178 36.9861 24.3819 35.0545 26.5505 35.0545C28.7191 35.0545 30.4834 36.9861 30.4834 39.3604C30.4834 41.7347 28.7191 43.6667 26.5505 43.6667Z" fill="#F3618E"/>
<path d="M63.7899 39.3604C63.7899 42.7916 61.1755 45.5733 57.9507 45.5733C54.7255 45.5733 52.111 42.7916 52.111 39.3604C52.111 35.9293 54.7255 33.1475 57.9507 33.1475C61.1755 33.1475 63.7899 35.9293 63.7899 39.3604Z" fill="#F6859D"/>
<path d="M57.9503 43.6667C55.7819 43.6667 54.0176 41.7347 54.0176 39.3604C54.0176 36.9861 55.7819 35.0545 57.9503 35.0545C60.119 35.0545 61.8833 36.9861 61.8833 39.3604C61.8833 41.7347 60.119 43.6667 57.9503 43.6667Z" fill="#F3618E"/>
<path d="M48.7622 14.6059C53.8636 14.6059 57.9988 18.7411 57.9988 23.8422V37.3996H57.9761C57.789 45.0878 55.2683 48.36 51.4737 51.7426C48.8805 54.0574 45.6925 55.8308 42.245 55.8308C38.7782 55.8308 35.575 54.0422 32.978 51.7081C29.2062 48.3179 26.7007 45.0612 26.5138 37.3996C26.5062 37.0908 26.5024 36.7744 26.5024 36.4539V23.8422C26.5024 18.7411 30.6378 14.6059 35.7389 14.6059H48.7622Z" fill="#F89DAD"/>
<path d="M48.3259 40.2549C48.3259 40.2549 48.3392 40.2299 48.3638 40.1828C48.3912 40.1369 48.42 40.0641 48.4769 39.9822C48.5839 39.8126 48.7462 39.574 48.9932 39.3286C49.2375 39.082 49.5667 38.829 49.9654 38.6397C50.3607 38.442 50.8266 38.3241 51.2973 38.2854C51.4161 38.2819 51.5314 38.2747 51.6524 38.2804C51.7616 38.2823 51.8804 38.2922 51.9995 38.3043C52.232 38.3305 52.4539 38.3847 52.6652 38.4489C53.0859 38.5835 53.4486 38.7853 53.7236 38.9981C54.0032 39.2064 54.1929 39.4264 54.3211 39.5782C54.3867 39.6533 54.428 39.7208 54.4592 39.7637C54.4895 39.8073 54.5058 39.8308 54.5058 39.8308C54.5058 39.8308 54.4193 39.758 54.2683 39.6305C54.1193 39.5038 53.8898 39.343 53.6034 39.1814C53.3166 39.0198 52.9649 38.8707 52.5734 38.7717C52.3777 38.7224 52.1706 38.6939 51.9623 38.6708C51.861 38.6624 51.7571 38.6548 51.6421 38.6552C51.539 38.6518 51.4293 38.6617 51.3231 38.6655C51.1099 38.6814 50.8971 38.7083 50.6923 38.7592C50.4886 38.8111 50.2871 38.8658 50.1016 38.9458C49.7257 39.0949 49.3995 39.2952 49.1362 39.4932C48.8756 39.6927 48.6658 39.8805 48.5365 40.0258C48.4025 40.1718 48.3259 40.2549 48.3259 40.2549Z" fill="#F3618E"/>
<path d="M36.2677 40.2549C36.2677 40.2549 36.1911 40.1718 36.0571 40.0258C35.9278 39.8805 35.718 39.6927 35.457 39.4932C35.1941 39.2952 34.8675 39.0949 34.492 38.9458C34.3065 38.8658 34.105 38.8111 33.9013 38.7592C33.6965 38.7083 33.4837 38.6814 33.2705 38.6655C33.1643 38.6617 33.0546 38.6518 32.9515 38.6552C32.8361 38.6548 32.7322 38.6624 32.6313 38.6708C32.423 38.6939 32.2155 38.7224 32.0202 38.7717C31.6287 38.8707 31.2767 39.0198 30.9899 39.1814C30.7038 39.343 30.4743 39.5038 30.3253 39.6305C30.1739 39.758 30.0878 39.8308 30.0878 39.8308C30.0878 39.8308 30.1041 39.8073 30.1341 39.7637C30.1652 39.7208 30.2069 39.6533 30.2725 39.5782C30.4007 39.4264 30.5904 39.2064 30.87 38.9981C31.145 38.7853 31.5077 38.5835 31.9284 38.4489C32.1397 38.3847 32.3616 38.3305 32.5937 38.3043C32.7132 38.2922 32.832 38.2823 32.9412 38.2804C33.0622 38.2747 33.1775 38.2819 33.2963 38.2854C33.767 38.3241 34.2329 38.442 34.6282 38.6397C35.0269 38.829 35.3561 39.082 35.6 39.3286C35.8474 39.574 36.0097 39.8126 36.1167 39.9822C36.1736 40.0641 36.2024 40.1369 36.2294 40.1828C36.2544 40.2299 36.2677 40.2549 36.2677 40.2549Z" fill="#F3618E"/>
<path d="M59.8512 33.5215C59.9433 31.4344 59.9862 29.3321 59.9957 27.254C61.8302 26.8716 63.4432 25.55 64.1791 23.8266C64.1844 23.8145 62.5384 22.6788 62.3897 22.5574C60.0534 20.6477 59.1661 17.5606 57.5671 15.1082C55.1234 11.3602 50.9104 9.33454 46.6238 8.52806C42.5083 7.75381 36.7847 7.4583 33.1002 9.7833C31.5801 10.7423 30.7114 12.2839 30.5813 14.0691C30.5381 14.6617 30.5548 15.2622 30.5278 15.849C30.5419 15.5455 28.8966 15.7523 28.7009 15.7895C27.0238 16.1093 25.3762 16.8964 24.5165 18.4418C23.407 20.4364 23.596 22.7611 24.1297 24.8964C24.4125 26.0268 24.781 27.1467 24.8696 28.315C24.9633 29.5475 24.7831 29.793 24.746 31.0247C24.7417 31.1677 26.516 31.7375 26.6272 31.7371V28.0666C26.6272 22.2205 31.3043 17.4813 37.0738 17.4813H47.4364C50.6141 17.4813 53.6701 18.9847 55.6393 21.5111C56.9264 23.1628 57.6028 25.1767 57.8217 27.2536C57.9203 28.1918 57.8729 29.1367 57.8076 30.0752C57.778 30.5001 57.7242 30.9261 57.6934 31.3483C57.6658 31.7326 57.8422 32.1665 57.8873 32.555C57.9681 33.2518 57.9931 33.9513 58.0246 34.6516C58.0493 35.202 58.5106 35.424 58.9119 35.7388C59.047 35.845 59.7742 36.287 59.7643 36.4831C59.7829 35.4858 59.8079 34.5029 59.8512 33.5215Z" fill="#B22C27"/>
<path d="M25.4457 39.3604H26.6282V31.0247H24.746V38.6605C24.746 39.0471 25.0593 39.3604 25.4457 39.3604Z" fill="#B22C27"/>
<path d="M59.0644 39.3604H57.882V31.0247H59.7643V38.6605C59.7643 39.0471 59.451 39.3604 59.0644 39.3604Z" fill="#B22C27"/>
<path d="M32.5824 23.8073C33.5152 23.8065 34.4484 23.8114 35.3812 23.816C35.8223 23.8179 36.2631 23.8202 36.7043 23.8224C38.7065 23.8319 40.7091 23.841 42.7112 23.8475C43.7123 23.8505 44.7134 23.8528 45.7145 23.8543C46.2153 23.8551 46.716 23.8555 47.2167 23.8555C47.5373 23.8558 47.9606 23.6829 48.1336 24.0614C48.217 24.245 48.1977 24.4575 48.1677 24.657C48.0968 25.1255 47.9758 25.5868 47.807 26.0295C47.398 27.1007 46.9933 28.2103 47.5961 29.3025C47.9879 30.0126 48.6939 30.5281 49.475 30.7478C50.5773 31.0577 51.7931 30.7394 52.8633 30.4401C54.6246 29.9481 56.0941 31.1999 56.9105 32.6377C57.5918 33.8371 58.0034 35.2502 58.069 36.6291C58.0436 36.0965 58.6612 35.3519 58.8326 34.8466C59.0883 34.0943 59.1968 33.2207 59.314 32.4359C59.5758 30.6829 59.6554 28.9015 59.5481 27.1319C59.4893 26.1622 59.2423 25.4001 58.9351 24.5011C58.6707 23.7265 58.6938 22.8646 58.4298 22.0612C57.9446 20.5832 57.049 19.2794 55.898 18.2529C52.3952 15.1298 47.1886 14.5676 42.7257 14.5676C25.373 14.5676 25.2563 25.88 25.2563 25.88C25.4539 27.191 25.6515 28.502 25.8492 29.8134C25.8492 30.3312 26.0509 30.8889 26.1222 31.4029C26.201 31.9715 26.1983 32.5117 26.1257 33.0804C26.0788 33.4483 25.9624 33.8326 26.0478 34.2009C26.0478 34.4866 26.1681 34.7976 26.3147 35.0863C26.4193 35.2919 26.5372 35.4865 26.6344 35.6527C26.5458 35.5013 26.8626 34.7426 26.9131 34.5651C27.0155 34.2059 27.1304 33.8497 27.2249 33.4882C27.4866 32.4848 27.8261 31.5311 28.4156 30.6715C28.8041 30.1055 29.4156 29.7892 29.927 29.3438C30.6731 28.6944 31.3984 27.9846 31.6909 27.0215C32.0065 25.9836 31.9838 24.8808 31.9967 23.8077C32.192 23.8077 32.387 23.8077 32.5824 23.8073Z" fill="#B22C27"/>
<path d="M44.0871 42.49L43.4487 43.2756C42.7871 44.0893 41.7143 44.0893 41.0524 43.2756L40.4139 42.49C40.2292 42.2631 40.3601 41.8751 40.621 41.8751H43.88C44.141 41.8751 44.2719 42.2631 44.0871 42.49Z" fill="#F46D82"/>
<path d="M50.5291 36.6291C50.5291 38.008 49.7466 39.126 48.7815 39.126C47.8161 39.126 47.0335 38.008 47.0335 36.6291C47.0335 35.2502 47.8161 34.1327 48.7815 34.1327C49.7466 34.1327 50.5291 35.2502 50.5291 36.6291Z" fill="#B22C27"/>
<path d="M48.7815 38.3631C48.3164 38.3631 47.796 37.6215 47.796 36.6295C47.796 35.6368 48.3164 34.8955 48.7815 34.8955C49.2466 34.8955 49.7667 35.6368 49.7667 36.6295C49.7667 37.6215 49.2466 38.3631 48.7815 38.3631Z" fill="#7E181A"/>
<path d="M33.9787 36.6291C33.9787 38.008 34.7613 39.126 35.7267 39.126C36.6922 39.126 37.4744 38.008 37.4744 36.6291C37.4744 35.2502 36.6922 34.1327 35.7267 34.1327C34.7613 34.1327 33.9787 35.2502 33.9787 36.6291Z" fill="#B22C27"/>
<path d="M35.7267 38.3631C35.2617 38.3631 34.7416 37.6215 34.7416 36.6295C34.7416 35.6368 35.2617 34.8955 35.7267 34.8955C36.1918 34.8955 36.7115 35.6368 36.7115 36.6295C36.7115 37.6215 36.1918 38.3631 35.7267 38.3631Z" fill="#7E181A"/>
<path d="M37.0772 31.0334C36.0317 30.9097 34.9544 31 33.9571 31.28C33.4548 31.4207 32.9678 31.6142 32.4879 31.8164C32.0626 31.9958 31.156 32.5121 31.156 33.0944C31.156 33.4017 31.9287 32.8683 32.1157 32.7901C32.9253 32.4503 33.7761 32.1824 34.6528 32.0929C35.5788 31.9981 36.408 32.1627 37.2714 32.4878C37.7672 32.6748 38.2376 33.0052 38.7528 33.127C39.0426 33.1972 39.4337 33.127 39.6416 32.9005C39.7823 32.7477 39.7823 32.5489 39.7633 32.3513C39.7391 32.1001 39.6268 31.8619 39.4784 31.6601C39.4166 31.5762 39.3487 31.497 39.2789 31.4196C39.2732 31.5121 39.2793 31.6058 39.2971 31.6969C39.2797 31.6066 39.1037 31.5797 39.0373 31.5508C38.4178 31.2842 37.7543 31.1138 37.0772 31.0334Z" fill="#B22C27"/>
<path d="M47.1681 31.0334C48.2136 30.9097 49.2909 31 50.2882 31.28C50.7905 31.4207 51.2776 31.6142 51.7574 31.8164C52.1827 31.9958 53.0893 32.5121 53.0893 33.0944C53.0893 33.4017 52.3166 32.8683 52.1296 32.7901C51.3201 32.4503 50.4692 32.1824 49.5925 32.0929C48.6665 31.9981 47.8373 32.1627 46.9739 32.4878C46.4781 32.6748 46.0077 33.0052 45.4926 33.127C45.2027 33.1972 44.8116 33.127 44.6038 32.9005C44.463 32.7477 44.463 32.5489 44.482 32.3513C44.5063 32.1001 44.6186 31.8619 44.7669 31.6601C44.8287 31.5762 44.8966 31.497 44.9664 31.4196C44.9721 31.5121 44.966 31.6058 44.9482 31.6969C44.9657 31.6066 45.1417 31.5797 45.2081 31.5508C45.8275 31.2842 46.491 31.1138 47.1681 31.0334Z" fill="#B22C27"/>
<path d="M41.8793 48.511C38.8472 48.511 36.7976 47.1195 36.7661 47.0979C36.5935 46.9773 36.5511 46.7402 36.6713 46.5672C36.7912 46.395 37.0279 46.3513 37.2016 46.4716C37.3875 46.6002 41.8092 49.5769 47.3123 46.0706C47.4891 45.9576 47.725 46.0096 47.8388 46.1875C47.9515 46.365 47.8995 46.601 47.722 46.714C45.5874 48.0739 43.5792 48.511 41.8793 48.511Z" fill="#F3618E"/>
<path d="M31.9913 59.0992L42.2507 71.118C42.2507 71.118 35.3326 72.2522 33.1131 79.6988C33.1131 79.6988 31.2311 65.7894 26.3685 60.3939L28.144 55.283C28.243 54.9978 28.4574 54.7671 28.7347 54.6476L31.9913 53.2429V59.0992Z" fill="#FDFDEC"/>
<path d="M31.9913 59.0992L29.4915 56.1013C29.2733 55.8395 29.3621 55.4427 29.6709 55.2989L31.9913 54.2201V59.0992Z" fill="#A47FA8"/>
<path d="M52.5116 59.0992L42.2526 71.118C42.2526 71.118 49.1703 72.2522 51.3902 79.6988C51.3902 79.6988 53.5153 63.0569 58.1346 60.3939L56.3593 55.283C56.2599 54.9978 56.0456 54.7671 55.7683 54.6476L52.5116 53.2429V59.0992Z" fill="#FDFDEC"/>
<path d="M52.5116 59.0992V54.2201L54.832 55.2989C55.1408 55.4427 55.2296 55.8395 55.0119 56.1013L52.5116 59.0992Z" fill="#A47FA8"/>
<path d="M72.9408 71.2807L72.9291 71.3039L72.9234 71.3096C72.8482 71.3907 72.7728 71.4719 72.692 71.547C72.5471 71.7033 72.4021 71.8539 72.2459 72.0102C72.1476 72.1088 72.0433 72.2132 71.939 72.3114C71.7884 72.4677 71.6321 72.6126 71.4815 72.7571C71.3775 72.8615 71.2732 72.9601 71.1632 73.0583C71.0126 73.2032 70.8563 73.3478 70.6996 73.4927C68.2157 75.757 65.4594 77.7258 62.4887 79.3471C61.5335 79.8683 60.5548 80.3547 59.5587 80.8004L59.5936 79.3008C59.8944 66.8337 60.798 62.8612 61.51 61.2975C62.5699 61.593 63.5137 61.865 64.3187 62.1086L64.365 62.1256C65.3494 62.4268 66.2583 62.9018 67.0519 63.533C67.2256 63.6662 67.3933 63.8107 67.5556 63.9556C67.9725 64.3437 68.3488 64.7776 68.6846 65.2526L72.9408 71.2807Z" fill="#621915"/>
<path d="M72.9423 71.302L72.9309 71.3251L72.9268 71.3289L72.923 71.3327C72.8505 71.4127 72.7705 71.4928 72.6942 71.569C72.5493 71.7253 72.4006 71.8778 72.2481 72.0307C72.1453 72.1335 72.0421 72.2363 71.9393 72.3357C71.7868 72.4882 71.6343 72.6369 71.4815 72.7818C71.3787 72.8846 71.2717 72.984 71.1651 73.0792C71.0126 73.2279 70.8563 73.3728 70.7 73.5139C68.2172 75.7794 65.4601 77.7508 62.4891 79.3717C62.7103 70.1658 63.3358 63.4613 64.3653 62.1457C65.3494 62.4469 66.2571 62.9238 67.0541 63.5527C67.2256 63.69 67.3933 63.8311 67.5537 63.9802C67.9733 64.3653 68.3507 64.8 68.6861 65.2727L72.9423 71.302Z" fill="#FDFDEC"/>
<path d="M24.9425 80.8004C20.8428 78.959 17.0904 76.4747 13.8071 73.487C13.6508 73.3478 13.4945 73.2033 13.3381 73.0527C13.2338 72.9601 13.1238 72.8558 13.0254 72.7571C12.869 72.6126 12.7126 72.462 12.5679 72.3114C12.4637 72.2132 12.3594 72.1088 12.2552 72.0102C12.1104 71.8539 11.9541 71.7033 11.8093 71.547C11.7283 71.4659 11.653 71.385 11.5777 71.3039H11.5719L11.5604 71.2807L15.8165 65.2526C16.8761 63.753 18.3933 62.6586 20.142 62.1256L20.1824 62.1086C20.9818 61.865 21.9371 61.5873 22.9969 61.2975C23.7033 62.8612 24.6125 66.8337 24.9078 79.3008L24.9425 80.8004Z" fill="#621915"/>
<path d="M11.5628 71.302L11.5742 71.3251L11.578 71.3289L11.5819 71.3327C11.6543 71.4127 11.7343 71.4928 11.8107 71.569C11.9556 71.7253 12.1042 71.8778 12.2568 72.0307C12.3598 72.1335 12.4628 72.2363 12.5658 72.3357C12.7183 72.4882 12.8707 72.6369 13.0234 72.7818C13.1263 72.8846 13.2332 72.984 13.3399 73.0792C13.4925 73.2279 13.6488 73.3728 13.8052 73.5139C16.2878 75.7794 19.045 77.7508 22.0157 79.3717C21.7947 70.1658 21.1692 63.4613 20.1395 62.1457C19.1556 62.4469 18.2479 62.9238 17.4509 63.5527C17.2793 63.69 17.1115 63.8311 16.9514 63.9802C16.5319 64.3653 16.1543 64.8 15.8187 65.2727L11.5628 71.302Z" fill="#FDFDEC"/>
</svg>
